<?xml version="1.0" encoding="UTF-8" standalone="no"?><!-- Generator: Gravit.io --><svg xmlns="http://www.w3.org/2000/svg" xmlns:xlink="http://www.w3.org/1999/xlink" style="isolation:isolate" viewBox="0 0 1242 2688" width="1242pt" height="2688pt"><defs><clipPath id="_clipPath_qYrxhTgI9WpDygYVyznT8FrrJgoVDZNq"><rect width="1242" height="2688"/></clipPath></defs><g clip-path="url(#_clipPath_qYrxhTgI9WpDygYVyznT8FrrJgoVDZNq)"><rect width="1242" height="2688" style="fill:rgb(1,1,34)"/><g><g><g><g><linearGradient id="_lgradient_9" x1="0" y1="0.5" x2="1" y2="0.5" gradientTransform="matrix(1207,0,0,68,17.5,143)" gradientUnits="userSpaceOnUse"><stop offset="0%" stop-opacity="1" style="stop-color:rgb(0,150,136)"/><stop offset="97.3913043478261%" stop-opacity="1" style="stop-color:rgb(0,98,255)"/></linearGradient><rect x="17.5" y="143" width="1207" height="68" transform="matrix(1,0,0,1,0,0)" fill="url(#_lgradient_9)"/><rect x="17.5" y="211" width="1207" height="239" transform="matrix(1,0,0,1,0,0)" fill="rgb(255,255,255)" fill-opacity="0.13"/></g><text transform="matrix(1,0,0,1,32.25,271.787)" style="font-family:'Open Sans';font-weight:300;font-size:55px;font-style:normal;fill:#ffffff;stroke:none;">This is a sample reminder of the reminder app </text><text transform="matrix(1,0,0,1,32.25,346.687)" style="font-family:'Open Sans';font-weight:300;font-size:55px;font-style:normal;fill:#ffffff;stroke:none;">or rather progressive web app am planning on </text><text transform="matrix(1,0,0,1,32.25,421.586)" style="font-family:'Open Sans';font-weight:300;font-size:55px;font-style:normal;fill:#ffffff;stroke:none;">making</text></g><g><g><linearGradient id="_lgradient_10" x1="0" y1="0.5" x2="1" y2="0.5" gradientTransform="matrix(1207,0,0,68,17.5,1555)" gradientUnits="userSpaceOnUse"><stop offset="0%" stop-opacity="1" style="stop-color:rgb(0,150,136)"/><stop offset="97.3913043478261%" stop-opacity="1" style="stop-color:rgb(0,98,255)"/></linearGradient><rect x="17.5" y="1555" width="1207" height="68" transform="matrix(1,0,0,1,0,0)" fill="url(#_lgradient_10)"/><rect x="17.5" y="1623" width="1207" height="239" transform="matrix(1,0,0,1,0,0)" fill="rgb(255,255,255)" fill-opacity="0.13"/></g><text transform="matrix(1,0,0,1,32.25,1683.787)" style="font-family:'Open Sans';font-weight:300;font-size:55px;font-style:normal;fill:#ffffff;stroke:none;">This is a sample reminder of the reminder app </text><text transform="matrix(1,0,0,1,32.25,1758.687)" style="font-family:'Open Sans';font-weight:300;font-size:55px;font-style:normal;fill:#ffffff;stroke:none;">or rather progressive web app am planning on </text><text transform="matrix(1,0,0,1,32.25,1833.586)" style="font-family:'Open Sans';font-weight:300;font-size:55px;font-style:normal;fill:#ffffff;stroke:none;">making</text></g><g><g><linearGradient id="_lgradient_11" x1="0" y1="0.5" x2="1" y2="0.5" gradientTransform="matrix(1207,0,0,68,17.5,503)" gradientUnits="userSpaceOnUse"><stop offset="1.3043478260869565%" stop-opacity="1" style="stop-color:rgb(255,153,0)"/><stop offset="98.26086956521739%" stop-opacity="1" style="stop-color:rgb(255,0,255)"/></linearGradient><rect x="17.5" y="503" width="1207" height="68" transform="matrix(1,0,0,1,0,0)" fill="url(#_lgradient_11)"/><rect x="17.5" y="571" width="1207" height="239" transform="matrix(1,0,0,1,0,0)" fill="rgb(255,255,255)" fill-opacity="0.13"/></g><text transform="matrix(1,0,0,1,32.25,631.787)" style="font-family:'Open Sans';font-weight:300;font-size:55px;font-style:normal;fill:#ffffff;stroke:none;">This is a sample reminder of the reminder app </text><text transform="matrix(1,0,0,1,32.25,706.687)" style="font-family:'Open Sans';font-weight:300;font-size:55px;font-style:normal;fill:#ffffff;stroke:none;">or rather progressive web app am planning on </text><text transform="matrix(1,0,0,1,32.25,781.586)" style="font-family:'Open Sans';font-weight:300;font-size:55px;font-style:normal;fill:#ffffff;stroke:none;">making</text></g><g><g><linearGradient id="_lgradient_12" x1="0" y1="0.5" x2="1" y2="0.5" gradientTransform="matrix(1207,0,0,68,17.5,1915)" gradientUnits="userSpaceOnUse"><stop offset="1.3043478260869565%" stop-opacity="1" style="stop-color:rgb(255,153,0)"/><stop offset="98.26086956521739%" stop-opacity="1" style="stop-color:rgb(255,0,255)"/></linearGradient><rect x="17.5" y="1915" width="1207" height="68" transform="matrix(1,0,0,1,0,0)" fill="url(#_lgradient_12)"/><rect x="17.5" y="1983" width="1207" height="239" transform="matrix(1,0,0,1,0,0)" fill="rgb(255,255,255)" fill-opacity="0.13"/></g><text transform="matrix(1,0,0,1,32.25,2043.787)" style="font-family:'Open Sans';font-weight:300;font-size:55px;font-style:normal;fill:#ffffff;stroke:none;">This is a sample reminder of the reminder app </text><text transform="matrix(1,0,0,1,32.25,2118.687)" style="font-family:'Open Sans';font-weight:300;font-size:55px;font-style:normal;fill:#ffffff;stroke:none;">or rather progressive web app am planning on </text><text transform="matrix(1,0,0,1,32.25,2193.586)" style="font-family:'Open Sans';font-weight:300;font-size:55px;font-style:normal;fill:#ffffff;stroke:none;">making</text></g><g><g><linearGradient id="_lgradient_13" x1="0" y1="0.5" x2="1" y2="0.5" gradientTransform="matrix(1207,0,0,68,17.5,855)" gradientUnits="userSpaceOnUse"><stop offset="1.7391304347826086%" stop-opacity="1" style="stop-color:rgb(153,0,255)"/><stop offset="98.69565217391305%" stop-opacity="1" style="stop-color:rgb(76,76,240)"/></linearGradient><rect x="17.5" y="855" width="1207" height="68" transform="matrix(1,0,0,1,0,0)" fill="url(#_lgradient_13)"/><rect x="17.5" y="923" width="1207" height="239" transform="matrix(1,0,0,1,0,0)" fill="rgb(255,255,255)" fill-opacity="0.13"/></g><text transform="matrix(1,0,0,1,32.25,983.787)" style="font-family:'Open Sans';font-weight:300;font-size:55px;font-style:normal;fill:#ffffff;stroke:none;">This is a sample reminder of the reminder app </text><text transform="matrix(1,0,0,1,32.25,1058.687)" style="font-family:'Open Sans';font-weight:300;font-size:55px;font-style:normal;fill:#ffffff;stroke:none;">or rather progressive web app am planning on </text><text transform="matrix(1,0,0,1,32.25,1133.586)" style="font-family:'Open Sans';font-weight:300;font-size:55px;font-style:normal;fill:#ffffff;stroke:none;">making</text></g><g><g><linearGradient id="_lgradient_14" x1="0" y1="0.5" x2="1" y2="0.5" gradientTransform="matrix(1207,0,0,68,17.5,2267)" gradientUnits="userSpaceOnUse"><stop offset="1.7391304347826086%" stop-opacity="1" style="stop-color:rgb(153,0,255)"/><stop offset="98.69565217391305%" stop-opacity="1" style="stop-color:rgb(76,76,240)"/></linearGradient><rect x="17.5" y="2267" width="1207" height="68" transform="matrix(1,0,0,1,0,0)" fill="url(#_lgradient_14)"/><rect x="17.5" y="2335" width="1207" height="239" transform="matrix(1,0,0,1,0,0)" fill="rgb(255,255,255)" fill-opacity="0.13"/></g><text transform="matrix(1,0,0,1,32.25,2395.787)" style="font-family:'Open Sans';font-weight:300;font-size:55px;font-style:normal;fill:#ffffff;stroke:none;">This is a sample reminder of the reminder app </text><text transform="matrix(1,0,0,1,32.25,2470.687)" style="font-family:'Open Sans';font-weight:300;font-size:55px;font-style:normal;fill:#ffffff;stroke:none;">or rather progressive web app am planning on </text><text transform="matrix(1,0,0,1,32.25,2545.586)" style="font-family:'Open Sans';font-weight:300;font-size:55px;font-style:normal;fill:#ffffff;stroke:none;">making</text></g><g><g><linearGradient id="_lgradient_15" x1="0" y1="0.5" x2="1" y2="0.5" gradientTransform="matrix(1207,0,0,68,17.5,1207)" gradientUnits="userSpaceOnUse"><stop offset="2.1739130434782608%" stop-opacity="1" style="stop-color:rgb(255,153,0)"/><stop offset="98.69565217391305%" stop-opacity="1" style="stop-color:rgb(0,150,136)"/></linearGradient><rect x="17.5" y="1207" width="1207" height="68" transform="matrix(1,0,0,1,0,0)" fill="url(#_lgradient_15)"/><rect x="17.5" y="1275" width="1207" height="239" transform="matrix(1,0,0,1,0,0)" fill="rgb(255,255,255)" fill-opacity="0.13"/></g><text transform="matrix(1,0,0,1,32.25,1335.787)" style="font-family:'Open Sans';font-weight:300;font-size:55px;font-style:normal;fill:#ffffff;stroke:none;">This is a sample reminder of the reminder app </text><text transform="matrix(1,0,0,1,32.25,1410.687)" style="font-family:'Open Sans';font-weight:300;font-size:55px;font-style:normal;fill:#ffffff;stroke:none;">or rather progressive web app am planning on </text><text transform="matrix(1,0,0,1,32.25,1485.586)" style="font-family:'Open Sans';font-weight:300;font-size:55px;font-style:normal;fill:#ffffff;stroke:none;">making</text></g></g><text transform="matrix(1,0,0,1,17.5,86.819)" style="font-family:'Open Sans';font-weight:400;font-size:70px;font-style:normal;fill:#ffffff;stroke:none;">Sticky Notes</text><g><circle vector-effect="non-scaling-stroke" cx="1072" cy="47.66357421875" r="18" fill="rgb(235,235,235)"/><circle vector-effect="non-scaling-stroke" cx="1127" cy="47.66357421875" r="18" fill="rgb(235,235,235)"/><circle vector-effect="non-scaling-stroke" cx="1182" cy="47.66357421875" r="18" fill="rgb(235,235,235)"/></g><g><path d=" M 487.947 2421 L 0 2421 L 0 2688 L 1242 2688 L 1242 2421 L 754.053 2421 C 746.135 2487.426 689.543 2539 621 2539 C 552.457 2539 495.865 2487.426 487.947 2421 Z " fill-rule="evenodd" fill="rgb(0,98,255)"/><path d=" M 226.397 2618.016 L 211.803 2593.689 C 205.062 2582.461 201.501 2569.6 201.501 2556.51 L 201.501 2535.2 C 201.501 2508.298 183.549 2485.544 159.001 2478.208 L 159.001 2462.951 C 159.001 2453.575 151.376 2445.95 142 2445.95 C 132.625 2445.95 125 2453.575 125 2462.951 L 125 2478.208 C 100.453 2485.544 82.501 2508.298 82.501 2535.2 L 82.501 2556.51 C 82.501 2569.6 78.939 2582.452 72.207 2593.681 L 57.613 2618.008 C 56.822 2619.325 56.805 2620.957 57.562 2622.292 C 58.318 2623.626 59.721 2624.451 61.251 2624.451 L 222.751 2624.451 C 224.281 2624.451 225.691 2623.626 226.448 2622.3 C 227.205 2620.974 227.179 2619.325 226.397 2618.016 Z  M 115.234 2632.95 C 120.028 2642.963 130.177 2649.95 142 2649.95 C 153.824 2649.95 163.973 2642.963 168.767 2632.95 L 115.234 2632.95 L 115.234 2632.95 Z " fill-rule="evenodd" fill="rgb(255,255,255)"/><g><g><rect x="965" y="2421" width="277" height="267" transform="matrix(1,0,0,1,0,0)" fill="rgb(255,153,0)"/><path d="M 965 2428 L 1242 2428 L 1242 2428 L 1242 2411.385 C 1242 2399.03 1231.97 2389 1219.615 2389 L 987.385 2389 C 975.03 2389 965 2399.03 965 2411.385 L 965 2428 Z" style="stroke:none;fill:#FFFFFF;stroke-miterlimit:10;"/></g><g><path d=" M 1220.843 2597.86 L 1182.829 2455.991 C 1182.513 2454.815 1181.745 2453.813 1180.69 2453.204 C 1179.635 2452.595 1178.382 2452.431 1177.207 2452.746 L 1147.447 2460.721 C 1145.062 2453.348 1138.134 2448 1129.977 2448 C 1119.854 2448 1111.618 2456.236 1111.618 2466.359 C 1111.618 2467.681 1111.762 2468.968 1112.028 2470.211 L 1088.014 2476.646 L 1029.792 2461.044 C 1027.343 2460.388 1024.828 2461.841 1024.171 2464.29 L 986.157 2606.158 C 985.501 2608.606 986.954 2611.123 989.403 2611.779 L 1068.708 2633.029 L 1070.107 2638.249 C 1070.656 2640.299 1072.51 2641.652 1074.537 2641.652 C 1074.93 2641.652 1075.33 2641.601 1075.728 2641.494 L 1088.015 2638.202 L 1131.272 2649.792 C 1131.67 2649.899 1132.069 2649.95 1132.462 2649.95 C 1134.489 2649.95 1136.343 2648.598 1136.893 2646.547 L 1143.082 2623.447 L 1217.597 2603.481 C 1220.045 2602.825 1221.498 2600.308 1220.843 2597.86 Z  M 1129.977 2457.179 C 1135.039 2457.179 1139.157 2461.297 1139.157 2466.358 C 1139.157 2471.42 1135.039 2475.538 1129.977 2475.538 C 1124.916 2475.538 1120.798 2471.42 1120.798 2466.358 C 1120.798 2461.297 1124.916 2457.179 1129.977 2457.179 Z  M 996.212 2604.1 L 1031.85 2471.099 L 1070.281 2481.397 L 1035.339 2490.759 C 1034.163 2491.075 1033.161 2491.843 1032.552 2492.898 C 1031.944 2493.952 1031.778 2495.205 1032.094 2496.38 L 1065.965 2622.791 L 996.212 2604.1 Z  M 1129.214 2639.738 L 1105.748 2633.451 L 1132.845 2626.19 L 1129.214 2639.738 Z  M 1077.786 2631.44 L 1042.148 2498.438 L 1116.286 2478.573 C 1116.555 2478.874 1116.833 2479.165 1117.12 2479.448 L 1109.433 2492.762 C 1108.166 2494.957 1108.918 2497.764 1111.113 2499.031 C 1111.836 2499.449 1112.625 2499.647 1113.404 2499.647 C 1114.99 2499.647 1116.533 2498.824 1117.383 2497.352 L 1125.066 2484.045 C 1126.63 2484.48 1128.276 2484.717 1129.977 2484.717 C 1138.823 2484.717 1146.227 2478.428 1147.955 2470.087 L 1175.15 2462.8 L 1210.788 2595.802 L 1077.786 2631.44 Z " fill="rgb(255,255,255)"/><path d=" M 1166.346 2518.616 C 1168.794 2517.96 1170.248 2515.443 1169.591 2512.995 C 1168.935 2510.546 1166.418 2509.093 1163.97 2509.75 L 1075.304 2533.508 C 1072.856 2534.164 1071.402 2536.681 1072.059 2539.129 C 1072.608 2541.179 1074.462 2542.532 1076.489 2542.532 C 1076.882 2542.532 1077.282 2542.481 1077.68 2542.374 L 1166.346 2518.616 Z " fill="rgb(255,255,255)"/><path d=" M 1171.692 2538.566 C 1174.141 2537.91 1175.594 2535.393 1174.937 2532.945 C 1174.281 2530.497 1171.764 2529.043 1169.316 2529.699 L 1080.65 2553.458 C 1078.201 2554.114 1076.748 2556.63 1077.405 2559.079 C 1077.954 2561.129 1079.808 2562.482 1081.835 2562.482 C 1082.228 2562.482 1082.628 2562.431 1083.026 2562.324 L 1171.692 2538.566 Z " fill="rgb(255,255,255)"/><path d=" M 1085.996 2573.407 C 1083.548 2574.063 1082.094 2576.58 1082.751 2579.028 C 1083.3 2581.079 1085.154 2582.431 1087.181 2582.431 C 1087.574 2582.431 1087.974 2582.381 1088.372 2582.274 L 1177.038 2558.516 C 1179.486 2557.86 1180.939 2555.343 1180.283 2552.895 C 1179.627 2550.447 1177.11 2548.993 1174.662 2549.649 L 1085.996 2573.407 Z " fill="rgb(255,255,255)"/><path d=" M 1135.674 2581.479 L 1091.341 2593.357 C 1088.893 2594.014 1087.44 2596.53 1088.096 2598.979 C 1088.645 2601.029 1090.5 2602.382 1092.526 2602.382 C 1092.919 2602.382 1093.32 2602.331 1093.717 2602.224 L 1138.05 2590.345 C 1140.498 2589.689 1141.952 2587.172 1141.295 2584.724 C 1140.639 2582.276 1138.121 2580.822 1135.674 2581.479 L 1135.674 2581.479 Z " fill="rgb(255,255,255)"/></g></g></g></g><g><rect x="0" y="0" width="1242" height="2425" transform="matrix(1,0,0,1,0,0)" fill="rgb(0,0,0)" fill-opacity="0.69"/><g><circle vector-effect="non-scaling-stroke" cx="621" cy="2401.5" r="121.5" fill="rgb(255,153,0)"/><path d=" M 621 2387.358 L 586.514 2352.871 C 581.351 2347.709 573.991 2346.686 570.088 2350.588 L 570.088 2350.588 C 566.186 2354.491 567.209 2361.851 572.371 2367.014 L 606.858 2401.5 L 572.371 2435.986 C 567.209 2441.149 566.186 2448.509 570.088 2452.412 L 570.088 2452.412 C 573.991 2456.314 581.351 2455.291 586.514 2450.129 L 621 2415.642 L 655.486 2450.129 C 660.649 2455.291 668.009 2456.314 671.912 2452.412 L 671.912 2452.412 C 675.814 2448.509 674.791 2441.149 669.629 2435.986 L 635.142 2401.5 L 669.629 2367.014 C 674.791 2361.851 675.814 2354.491 671.912 2350.588 L 671.912 2350.588 C 668.009 2346.686 660.649 2347.709 655.486 2352.871 L 621 2387.358 Z " fill-rule="evenodd" fill="rgb(235,235,235)"/></g></g><g><g><path d="M 305.24 38 L 917.76 38 C 932.242 38 944 49.758 944 64.24 L 944 139.76 C 944 154.242 932.242 166 917.76 166 L 305.24 166 C 290.758 166 279 154.242 279 139.76 L 279 64.24 C 279 49.758 290.758 38 305.24 38 Z" style="stroke:none;fill:#0055FF;stroke-miterlimit:10;"/><text transform="matrix(1,0,0,1,324.5,128.035)" style="font-family:'Open Sans';font-weight:400;font-size:80px;font-style:normal;fill:#ffffff;stroke:none;">Add Sticky Note</text></g><g><defs><linearGradient id="_lgradient_16" x1="-0.006944444444444244" y1="-0.0571665285832641" x2="0.90827802359882" y2="0.8298421450095685"><stop offset="0%" style="stop-color:#0B53C6"/><stop offset="99.1304347826087%" style="stop-color:#037575"/></linearGradient></defs><path d="M 183.834 222 L 1058.166 222 C 1134.791 222 1197 284.209 1197 360.834 L 1197 1764.166 C 1197 1840.791 1134.791 1903 1058.166 1903 L 183.834 1903 C 107.209 1903 45 1840.791 45 1764.166 L 45 360.834 C 45 284.209 107.209 222 183.834 222 Z" style="stroke:none;fill:url(#_lgradient_16);stroke-miterlimit:10;"/><g><text transform="matrix(1,0,0,1,103,367.922)" style="font-family:'Open Sans';font-weight:400;font-size:60px;font-style:normal;fill:#ffffff;stroke:none;">Note</text><g style="mix-blend-mode:normal;" opacity="0.24"><path d="M 132.134 405.709 L 1113.866 405.709 C 1129.946 405.709 1143 418.763 1143 434.843 L 1143 1615.866 C 1143 1631.946 1129.946 1645 1113.866 1645 L 132.134 1645 C 116.054 1645 103 1631.946 103 1615.866 L 103 434.843 C 103 418.763 116.054 405.709 132.134 405.709 Z" style="stroke:none;fill:#FFFFFF;stroke-miterlimit:10;"/></g></g></g></g><path d="M 268.775 1924 L 970.225 1924 C 1182.036 1924 1354 2095.964 1354 2307.775 L 1354 2443.225 C 1354 2655.036 1182.036 2827 970.225 2827 L 268.775 2827 C 56.964 2827 -115 2655.036 -115 2443.225 L -115 2307.775 C -115 2095.964 56.964 1924 268.775 1924 Z" style="stroke:none;fill:#EBEBEB;stroke-miterlimit:10;"/><path d=" M 1138.5 2752 L 103.5 2752 C 46.338 2752 0 2705.662 0 2648.5 L 0 2027.5 C 0 1970.338 46.338 1924 103.5 1924 L 1138.5 1924 C 1195.662 1924 1242 1970.338 1242 2027.5 L 1242 2648.5 C 1242 2705.662 1195.662 2752 1138.5 2752 Z  M 276 2174.125 L 276 2087.875 C 276 2073.586 264.414 2062 250.125 2062 L 163.875 2062 C 149.586 2062 138 2073.586 138 2087.875 L 138 2174.125 C 138 2188.414 149.586 2200 163.875 2200 L 250.125 2200 C 264.414 2200 276 2188.414 276 2174.125 Z  M 483 2174.125 L 483 2087.875 C 483 2073.586 471.414 2062 457.125 2062 L 370.875 2062 C 356.586 2062 345 2073.586 345 2087.875 L 345 2174.125 C 345 2188.414 356.586 2200 370.875 2200 L 457.125 2200 C 471.414 2200 483 2188.414 483 2174.125 Z  M 690 2174.125 L 690 2087.875 C 690 2073.586 678.414 2062 664.125 2062 L 577.875 2062 C 563.586 2062 552 2073.586 552 2087.875 L 552 2174.125 C 552 2188.414 563.586 2200 577.875 2200 L 664.125 2200 C 678.414 2200 690 2188.414 690 2174.125 Z  M 897 2174.125 L 897 2087.875 C 897 2073.586 885.414 2062 871.125 2062 L 784.875 2062 C 770.586 2062 759 2073.586 759 2087.875 L 759 2174.125 C 759 2188.414 770.586 2200 784.875 2200 L 871.125 2200 C 885.414 2200 897 2188.414 897 2174.125 Z  M 1104 2174.125 L 1104 2087.875 C 1104 2073.586 1092.414 2062 1078.125 2062 L 991.875 2062 C 977.586 2062 966 2073.586 966 2087.875 L 966 2174.125 C 966 2188.414 977.586 2200 991.875 2200 L 1078.125 2200 C 1092.414 2200 1104 2188.414 1104 2174.125 Z  M 379.5 2381.125 L 379.5 2294.875 C 379.5 2280.586 367.914 2269 353.625 2269 L 267.375 2269 C 253.086 2269 241.5 2280.586 241.5 2294.875 L 241.5 2381.125 C 241.5 2395.414 253.086 2407 267.375 2407 L 353.625 2407 C 367.914 2407 379.5 2395.414 379.5 2381.125 Z  M 586.5 2381.125 L 586.5 2294.875 C 586.5 2280.586 574.914 2269 560.625 2269 L 474.375 2269 C 460.086 2269 448.5 2280.586 448.5 2294.875 L 448.5 2381.125 C 448.5 2395.414 460.086 2407 474.375 2407 L 560.625 2407 C 574.914 2407 586.5 2395.414 586.5 2381.125 Z  M 793.5 2381.125 L 793.5 2294.875 C 793.5 2280.586 781.914 2269 767.625 2269 L 681.375 2269 C 667.086 2269 655.5 2280.586 655.5 2294.875 L 655.5 2381.125 C 655.5 2395.414 667.086 2407 681.375 2407 L 767.625 2407 C 781.914 2407 793.5 2395.414 793.5 2381.125 Z  M 1000.5 2381.125 L 1000.5 2294.875 C 1000.5 2280.586 988.914 2269 974.625 2269 L 888.375 2269 C 874.086 2269 862.5 2280.586 862.5 2294.875 L 862.5 2381.125 C 862.5 2395.414 874.086 2407 888.375 2407 L 974.625 2407 C 988.914 2407 1000.5 2395.414 1000.5 2381.125 Z  M 276 2588.125 L 276 2501.875 C 276 2487.586 264.414 2476 250.125 2476 L 163.875 2476 C 149.586 2476 138 2487.586 138 2501.875 L 138 2588.125 C 138 2602.414 149.586 2614 163.875 2614 L 250.125 2614 C 264.414 2614 276 2602.414 276 2588.125 Z  M 897 2588.125 L 897 2501.875 C 897 2487.586 885.414 2476 871.125 2476 L 370.875 2476 C 356.586 2476 345 2487.586 345 2501.875 L 345 2588.125 C 345 2602.414 356.586 2614 370.875 2614 L 871.125 2614 C 885.414 2614 897 2602.414 897 2588.125 Z  M 1104 2588.125 L 1104 2501.875 C 1104 2487.586 1092.414 2476 1078.125 2476 L 991.875 2476 C 977.586 2476 966 2487.586 966 2501.875 L 966 2588.125 C 966 2602.414 977.586 2614 991.875 2614 L 1078.125 2614 C 1092.414 2614 1104 2602.414 1104 2588.125 Z " fill="rgb(0,0,0)"/><g><path d="M 216.548 1682 L 470.702 1682 C 520.332 1682 560.625 1721.656 560.625 1770.5 L 560.625 1770.5 C 560.625 1819.344 520.332 1859 470.702 1859 L 216.548 1859 C 166.918 1859 126.625 1819.344 126.625 1770.5 L 126.625 1770.5 C 126.625 1721.656 166.918 1682 216.548 1682 Z" style="stroke:none;fill:#FFFFFF;stroke-miterlimit:10;opacity:0.39;"/><g><path d=" M 520.979 1737.57 L 504.424 1718.711 C 502.647 1716.688 500.238 1715.551 497.725 1715.551 L 444.808 1715.551 C 439.576 1715.551 435.334 1720.382 435.334 1726.342 L 435.334 1805.479 C 435.334 1811.44 439.576 1816.271 444.808 1816.271 L 514.281 1816.271 C 519.513 1816.271 523.754 1811.44 523.754 1805.479 L 523.754 1745.201 C 523.754 1742.339 522.756 1739.594 520.979 1737.57 L 520.979 1737.57 Z  M 479.544 1801.882 C 472.568 1801.882 466.913 1795.44 466.913 1787.494 C 466.913 1779.547 472.568 1773.105 479.544 1773.105 C 486.52 1773.105 492.176 1779.547 492.176 1787.494 C 492.176 1795.44 486.52 1801.882 479.544 1801.882 Z  M 498.491 1733.42 L 498.491 1756.019 C 498.491 1757.509 497.431 1758.717 496.123 1758.717 L 450.334 1758.717 C 449.026 1758.717 447.966 1757.509 447.966 1756.019 L 447.966 1732.637 C 447.966 1731.147 449.026 1729.939 450.334 1729.939 L 495.436 1729.939 C 496.064 1729.939 496.667 1730.223 497.111 1730.73 L 497.798 1731.512 C 498.242 1732.018 498.491 1732.704 498.491 1733.42 L 498.491 1733.42 Z " fill="rgb(255,255,255)"/><text transform="matrix(0.558,0,0,0.558,167.337,1800.928)" style="font-family:'Open Sans';font-weight:400;font-size:170px;font-style:normal;fill:#ffffff;stroke:none;">Save</text></g></g><g><path d="M 999.943 1679.5 L 1028.557 1679.5 C 1070.195 1679.5 1104 1713.305 1104 1754.943 L 1104 1783.557 C 1104 1825.195 1070.195 1859 1028.557 1859 L 999.943 1859 C 958.305 1859 924.5 1825.195 924.5 1783.557 L 924.5 1754.943 C 924.5 1713.305 958.305 1679.5 999.943 1679.5 Z" style="stroke:none;fill:#FFFFFF;stroke-miterlimit:10;opacity:0.39;"/><path d=" M 1014.25 1755.108 L 977.48 1718.338 C 973.578 1714.436 967.241 1714.436 963.338 1718.338 L 963.338 1718.338 C 959.436 1722.241 959.436 1728.578 963.338 1732.48 L 1000.108 1769.25 L 963.338 1806.02 C 959.436 1809.922 959.436 1816.259 963.338 1820.162 L 963.338 1820.162 C 967.241 1824.064 973.578 1824.064 977.48 1820.162 L 1014.25 1783.392 L 1051.02 1820.162 C 1054.922 1824.064 1061.259 1824.064 1065.162 1820.162 L 1065.162 1820.162 C 1069.064 1816.259 1069.064 1809.922 1065.162 1806.02 L 1028.392 1769.25 L 1065.162 1732.48 C 1069.064 1728.578 1069.064 1722.241 1065.162 1718.338 L 1065.162 1718.338 C 1061.259 1714.436 1054.922 1714.436 1051.02 1718.338 L 1014.25 1755.108 Z " fill-rule="evenodd" fill="rgb(235,235,235)"/></g></g></svg>