<?xml version="1.0" encoding="UTF-8" standalone="no"?><!-- Generator: Gravit.io --><svg xmlns="http://www.w3.org/2000/svg" xmlns:xlink="http://www.w3.org/1999/xlink" style="isolation:isolate" viewBox="0 0 1242 2688" width="1242pt" height="2688pt"><defs><clipPath id="_clipPath_ig2UaktaSw75DT0LPkxl74oBFUmUcoL4"><rect width="1242" height="2688"/></clipPath></defs><g clip-path="url(#_clipPath_ig2UaktaSw75DT0LPkxl74oBFUmUcoL4)"><rect width="1242" height="2688" style="fill:rgb(1,1,34)"/><text transform="matrix(1,0,0,1,17.5,74.819)" style="font-family:'Open Sans';font-weight:400;font-size:70px;font-style:normal;fill:#ffffff;stroke:none;">Reminders</text><g><circle vector-effect="non-scaling-stroke" cx="1072" cy="47.66357421875" r="18" fill="rgb(235,235,235)"/><circle vector-effect="non-scaling-stroke" cx="1127" cy="47.66357421875" r="18" fill="rgb(235,235,235)"/><circle vector-effect="non-scaling-stroke" cx="1182" cy="47.66357421875" r="18" fill="rgb(235,235,235)"/></g><g><g><g><path d="M 719.005 189 L 1180 189 C 1180 189 1180 189 1180 189 L 1180 270 L 685 270 L 685 223.005 C 685 204.237 700.237 189 719.005 189 Z" style="stroke:none;fill:#EBEBEB;stroke-miterlimit:10;"/><defs><filter id="ztHVqJpyUWRw9cxlup3Pus2YDe2lXfc1" x="-200%" y="-200%" width="400%" height="400%" filterUnits="objectBoundingBox" color-interpolation-filters="sRGB"><feGaussianBlur xmlns="http://www.w3.org/2000/svg" in="SourceGraphic" stdDeviation="2.146804531419514"/><feOffset xmlns="http://www.w3.org/2000/svg" dx="0" dy="0" result="pf_100_offsetBlur"/><feFlood xmlns="http://www.w3.org/2000/svg" flood-color="#000000" flood-opacity="0.65"/><feComposite xmlns="http://www.w3.org/2000/svg" in2="pf_100_offsetBlur" operator="in" result="pf_100_dropShadow"/><feBlend xmlns="http://www.w3.org/2000/svg" in="SourceGraphic" in2="pf_100_dropShadow" mode="normal"/></filter></defs><g filter="url(#ztHVqJpyUWRw9cxlup3Pus2YDe2lXfc1)"><path d="M 935.114 189 L 1180 189 C 1180 189 1180 189 1180 189 L 1180 270 L 910 270 L 910 214.114 C 910 200.253 921.253 189 935.114 189 Z" style="stroke:none;fill:#EBEBEB;stroke-miterlimit:10;"/></g><text transform="matrix(1,0,0,1,729,245.018)" style="font-family:'Open Sans';font-weight:400;font-size:40px;font-style:normal;fill:#000000;stroke:none;">3:00 pm</text><text transform="matrix(1,0,0,1,911.5,246.88)" style="font-family:'Open Sans';font-weight:400;font-size:38px;font-style:normal;fill:#000000;stroke:none;">10 March 2020</text></g><g><path d="M 69.633 269 L 1180 269 L 1180 745 L 48 745 L 48 290.633 C 48 278.694 57.694 269 69.633 269 Z" style="stroke:none;fill:#EBEBEB;stroke-miterlimit:10;opacity:0.22;"/><rect x="48" y="702" width="1132" height="43" transform="matrix(1,0,0,1,0,0)" fill="rgb(0,215,143)"/><text transform="matrix(1,0,0,1,76,359.269)" style="font-family:'Open Sans';font-weight:600;font-size:62px;font-style:normal;fill:#ffffff;stroke:none;">Go To Naivas</text><text transform="matrix(1,0,0,1,76,438.993)" style="font-family:'Open Sans';font-weight:300;font-size:58px;font-style:normal;fill:#ffffff;stroke:none;">Buy : Milk, Deodrant, Pan, Tie, Soap,Dish </text><text transform="matrix(1,0,0,1,76,517.979)" style="font-family:'Open Sans';font-weight:300;font-size:58px;font-style:normal;fill:#ffffff;stroke:none;">washer and more unnormal description</text><text transform="matrix(1,0,0,1,76,650.473)" style="font-family:'Open Sans';font-weight:400;font-size:53px;font-style:normal;fill:#ffffff;stroke:none;">10 March 2020</text><text transform="matrix(1,0,0,1,915,650.473)" style="font-family:'Open Sans';font-weight:400;font-size:53px;font-style:normal;fill:#ffffff;stroke:none;">10:30 pm</text></g></g><g><g><path d="M 719.005 793.333 L 1180 793.333 C 1180 793.333 1180 793.333 1180 793.333 L 1180 874.333 L 685 874.333 L 685 827.338 C 685 808.57 700.237 793.333 719.005 793.333 Z" style="stroke:none;fill:#EBEBEB;stroke-miterlimit:10;"/><defs><filter id="JHyiZmeWPDvyVVdPk9YDBh44A4IFPObw" x="-200%" y="-200%" width="400%" height="400%" filterUnits="objectBoundingBox" color-interpolation-filters="sRGB"><feGaussianBlur xmlns="http://www.w3.org/2000/svg" in="SourceGraphic" stdDeviation="2.146804531419514"/><feOffset xmlns="http://www.w3.org/2000/svg" dx="0" dy="0" result="pf_100_offsetBlur"/><feFlood xmlns="http://www.w3.org/2000/svg" flood-color="#000000" flood-opacity="0.65"/><feComposite xmlns="http://www.w3.org/2000/svg" in2="pf_100_offsetBlur" operator="in" result="pf_100_dropShadow"/><feBlend xmlns="http://www.w3.org/2000/svg" in="SourceGraphic" in2="pf_100_dropShadow" mode="normal"/></filter></defs><g filter="url(#JHyiZmeWPDvyVVdPk9YDBh44A4IFPObw)"><path d="M 935.114 793.333 L 1180 793.333 C 1180 793.333 1180 793.333 1180 793.333 L 1180 874.333 L 910 874.333 L 910 818.448 C 910 804.587 921.253 793.333 935.114 793.333 Z" style="stroke:none;fill:#EBEBEB;stroke-miterlimit:10;"/></g><text transform="matrix(1,0,0,1,729,849.351)" style="font-family:'Open Sans';font-weight:400;font-size:40px;font-style:normal;fill:#000000;stroke:none;">3:00 pm</text><text transform="matrix(1,0,0,1,911.5,851.213)" style="font-family:'Open Sans';font-weight:400;font-size:38px;font-style:normal;fill:#000000;stroke:none;">10 March 2020</text></g><g><path d="M 69.633 873.333 L 1180 873.333 L 1180 1349.333 L 48 1349.333 L 48 894.967 C 48 883.027 57.694 873.333 69.633 873.333 Z" style="stroke:none;fill:#EBEBEB;stroke-miterlimit:10;opacity:0.22;"/><rect x="48" y="1306.333" width="1132" height="43" transform="matrix(1,0,0,1,0,0)" fill="rgb(255,0,174)" fill-opacity="0.93"/><text transform="matrix(1,0,0,1,76,963.602)" style="font-family:'Open Sans';font-weight:600;font-size:62px;font-style:normal;fill:#ffffff;stroke:none;">Go To Naivas</text><text transform="matrix(1,0,0,1,76,1043.326)" style="font-family:'Open Sans';font-weight:300;font-size:58px;font-style:normal;fill:#ffffff;stroke:none;">Buy : Milk, Deodrant, Pan, Tie, Soap,Dish </text><text transform="matrix(1,0,0,1,76,1122.312)" style="font-family:'Open Sans';font-weight:300;font-size:58px;font-style:normal;fill:#ffffff;stroke:none;">washer and more unnormal description</text><text transform="matrix(1,0,0,1,76,1254.806)" style="font-family:'Open Sans';font-weight:400;font-size:53px;font-style:normal;fill:#ffffff;stroke:none;">10 March 2020</text><text transform="matrix(1,0,0,1,915,1254.806)" style="font-family:'Open Sans';font-weight:400;font-size:53px;font-style:normal;fill:#ffffff;stroke:none;">8:00 pm</text></g></g><g><g><path d="M 719.005 1397.667 L 1180 1397.667 C 1180 1397.667 1180 1397.667 1180 1397.667 L 1180 1478.667 L 685 1478.667 L 685 1431.672 C 685 1412.904 700.237 1397.667 719.005 1397.667 Z" style="stroke:none;fill:#EBEBEB;stroke-miterlimit:10;"/><defs><filter id="LdJPqUTs1usQauQN9Yim7x2mJu7UQw8U" x="-200%" y="-200%" width="400%" height="400%" filterUnits="objectBoundingBox" color-interpolation-filters="sRGB"><feGaussianBlur xmlns="http://www.w3.org/2000/svg" in="SourceGraphic" stdDeviation="2.146804531419514"/><feOffset xmlns="http://www.w3.org/2000/svg" dx="0" dy="0" result="pf_100_offsetBlur"/><feFlood xmlns="http://www.w3.org/2000/svg" flood-color="#000000" flood-opacity="0.65"/><feComposite xmlns="http://www.w3.org/2000/svg" in2="pf_100_offsetBlur" operator="in" result="pf_100_dropShadow"/><feBlend xmlns="http://www.w3.org/2000/svg" in="SourceGraphic" in2="pf_100_dropShadow" mode="normal"/></filter></defs><g filter="url(#LdJPqUTs1usQauQN9Yim7x2mJu7UQw8U)"><path d="M 935.114 1397.667 L 1180 1397.667 C 1180 1397.667 1180 1397.667 1180 1397.667 L 1180 1478.667 L 910 1478.667 L 910 1422.781 C 910 1408.92 921.253 1397.667 935.114 1397.667 Z" style="stroke:none;fill:#EBEBEB;stroke-miterlimit:10;"/></g><text transform="matrix(1,0,0,1,729,1453.684)" style="font-family:'Open Sans';font-weight:400;font-size:40px;font-style:normal;fill:#000000;stroke:none;">3:00 pm</text><text transform="matrix(1,0,0,1,911.5,1455.547)" style="font-family:'Open Sans';font-weight:400;font-size:38px;font-style:normal;fill:#000000;stroke:none;">10 March 2020</text></g><g><path d="M 69.633 1477.667 L 1180 1477.667 L 1180 1953.667 L 48 1953.667 L 48 1499.3 C 48 1487.36 57.694 1477.667 69.633 1477.667 Z" style="stroke:none;fill:#EBEBEB;stroke-miterlimit:10;opacity:0.22;"/><rect x="48" y="1910.667" width="1132" height="43" transform="matrix(1,0,0,1,0,0)" fill="rgb(215,0,79)"/><text transform="matrix(1,0,0,1,76,1567.935)" style="font-family:'Open Sans';font-weight:600;font-size:62px;font-style:normal;fill:#ffffff;stroke:none;">Go To Naivas</text><text transform="matrix(1,0,0,1,76,1647.66)" style="font-family:'Open Sans';font-weight:300;font-size:58px;font-style:normal;fill:#ffffff;stroke:none;">Buy : Milk, Deodrant, Pan, Tie, Soap,Dish </text><text transform="matrix(1,0,0,1,76,1726.645)" style="font-family:'Open Sans';font-weight:300;font-size:58px;font-style:normal;fill:#ffffff;stroke:none;">washer and more unnormal description</text><text transform="matrix(1,0,0,1,76,1859.139)" style="font-family:'Open Sans';font-weight:400;font-size:53px;font-style:normal;fill:#ffffff;stroke:none;">8 March 2020</text><text transform="matrix(1,0,0,1,915,1859.139)" style="font-family:'Open Sans';font-weight:400;font-size:53px;font-style:normal;fill:#ffffff;stroke:none;">10:30 pm</text></g></g></g><g><g><path d="M 719.005 2002 L 1180 2002 C 1180 2002 1180 2002 1180 2002 L 1180 2083 L 685 2083 L 685 2036.005 C 685 2017.237 700.237 2002 719.005 2002 Z" style="stroke:none;fill:#EBEBEB;stroke-miterlimit:10;"/><defs><filter id="CXHsacb3mbann3GeMRNX9n7c8NYVspS9" x="-200%" y="-200%" width="400%" height="400%" filterUnits="objectBoundingBox" color-interpolation-filters="sRGB"><feGaussianBlur xmlns="http://www.w3.org/2000/svg" in="SourceGraphic" stdDeviation="2.146804531419514"/><feOffset xmlns="http://www.w3.org/2000/svg" dx="0" dy="0" result="pf_100_offsetBlur"/><feFlood xmlns="http://www.w3.org/2000/svg" flood-color="#000000" flood-opacity="0.65"/><feComposite xmlns="http://www.w3.org/2000/svg" in2="pf_100_offsetBlur" operator="in" result="pf_100_dropShadow"/><feBlend xmlns="http://www.w3.org/2000/svg" in="SourceGraphic" in2="pf_100_dropShadow" mode="normal"/></filter></defs><g filter="url(#CXHsacb3mbann3GeMRNX9n7c8NYVspS9)"><path d="M 935.114 2002 L 1180 2002 C 1180 2002 1180 2002 1180 2002 L 1180 2083 L 910 2083 L 910 2027.114 C 910 2013.253 921.253 2002 935.114 2002 Z" style="stroke:none;fill:#EBEBEB;stroke-miterlimit:10;"/></g><text transform="matrix(1,0,0,1,729,2058.018)" style="font-family:'Open Sans';font-weight:400;font-size:40px;font-style:normal;fill:#000000;stroke:none;">3:00 pm</text><text transform="matrix(1,0,0,1,911.5,2059.88)" style="font-family:'Open Sans';font-weight:400;font-size:38px;font-style:normal;fill:#000000;stroke:none;">10 March 2020</text></g><g><path d="M 69.633 2082 L 1180 2082 L 1180 2558 L 48 2558 L 48 2103.633 C 48 2091.694 57.694 2082 69.633 2082 Z" style="stroke:none;fill:#EBEBEB;stroke-miterlimit:10;opacity:0.22;"/><rect x="48" y="2515" width="1132" height="43" transform="matrix(1,0,0,1,0,0)" fill="rgb(215,0,79)"/><text transform="matrix(1,0,0,1,76,2172.269)" style="font-family:'Open Sans';font-weight:600;font-size:62px;font-style:normal;fill:#ffffff;stroke:none;">Go To Naivas</text><text transform="matrix(1,0,0,1,76,2251.993)" style="font-family:'Open Sans';font-weight:300;font-size:58px;font-style:normal;fill:#ffffff;stroke:none;">Buy : Milk, Deodrant, Pan, Tie, Soap,Dish </text><text transform="matrix(1,0,0,1,76,2330.979)" style="font-family:'Open Sans';font-weight:300;font-size:58px;font-style:normal;fill:#ffffff;stroke:none;">washer and more unnormal description</text><text transform="matrix(1,0,0,1,76,2463.473)" style="font-family:'Open Sans';font-weight:400;font-size:53px;font-style:normal;fill:#ffffff;stroke:none;">10 March 2020</text><text transform="matrix(1,0,0,1,915,2463.473)" style="font-family:'Open Sans';font-weight:400;font-size:53px;font-style:normal;fill:#ffffff;stroke:none;">10:30 pm</text></g></g><g><linearGradient id="_lgradient_7" x1="0" y1="0.5" x2="1.1062163485070973" y2="0.47533369631572997" gradientTransform="matrix(1242,0,0,267,0,2421)" gradientUnits="userSpaceOnUse"><stop offset="0%" stop-opacity="1" style="stop-color:rgb(0,98,255)"/><stop offset="98.69565217391305%" stop-opacity="1" style="stop-color:rgb(42,151,151)"/></linearGradient><path d=" M 487.947 2421 L 0 2421 L 0 2688 L 1242 2688 L 1242 2421 L 754.053 2421 C 746.135 2487.426 689.543 2539 621 2539 C 552.457 2539 495.865 2487.426 487.947 2421 Z " fill-rule="evenodd" fill="url(#_lgradient_7)"/><g><g><rect x="0" y="2421" width="277" height="267" transform="matrix(1,0,0,1,0,0)" fill="rgb(255,56,142)"/><path d="M 0 2428 L 277 2428 L 277 2428 L 277 2411.385 C 277 2399.03 266.97 2389 254.615 2389 L 22.385 2389 C 10.03 2389 0 2399.03 0 2411.385 L 0 2428 Z" style="stroke:none;fill:#FFFFFF;stroke-miterlimit:10;"/></g><path d=" M 222.894 2618.016 L 208.3 2593.689 C 201.559 2582.461 197.998 2569.6 197.998 2556.51 L 197.998 2535.2 C 197.998 2508.298 180.046 2485.544 155.497 2478.208 L 155.497 2462.951 C 155.497 2453.575 147.873 2445.95 138.497 2445.95 C 129.122 2445.95 121.497 2453.575 121.497 2462.951 L 121.497 2478.208 C 96.949 2485.544 78.997 2508.298 78.997 2535.2 L 78.997 2556.51 C 78.997 2569.6 75.436 2582.452 68.704 2593.681 L 54.109 2618.008 C 53.319 2619.325 53.302 2620.957 54.058 2622.292 C 54.815 2623.626 56.218 2624.451 57.748 2624.451 L 219.247 2624.451 C 220.777 2624.451 222.188 2623.626 222.945 2622.3 C 223.702 2620.974 223.676 2619.325 222.894 2618.016 Z  M 111.731 2632.95 C 116.525 2642.963 126.674 2649.95 138.497 2649.95 C 150.321 2649.95 160.47 2642.963 165.264 2632.95 L 111.731 2632.95 L 111.731 2632.95 Z " fill-rule="evenodd" fill="rgb(255,255,255)"/></g><g><path d=" M 1199.843 2597.86 L 1161.829 2455.991 C 1161.513 2454.815 1160.745 2453.813 1159.69 2453.204 C 1158.635 2452.595 1157.382 2452.431 1156.207 2452.746 L 1126.447 2460.721 C 1124.062 2453.348 1117.134 2448 1108.977 2448 C 1098.854 2448 1090.618 2456.236 1090.618 2466.359 C 1090.618 2467.681 1090.762 2468.968 1091.028 2470.211 L 1067.014 2476.646 L 1008.792 2461.044 C 1006.343 2460.388 1003.828 2461.841 1003.171 2464.29 L 965.157 2606.158 C 964.501 2608.606 965.954 2611.123 968.403 2611.779 L 1047.708 2633.029 L 1049.107 2638.249 C 1049.656 2640.299 1051.51 2641.652 1053.537 2641.652 C 1053.93 2641.652 1054.33 2641.601 1054.728 2641.494 L 1067.015 2638.202 L 1110.272 2649.792 C 1110.67 2649.899 1111.069 2649.95 1111.462 2649.95 C 1113.489 2649.95 1115.343 2648.598 1115.893 2646.547 L 1122.082 2623.447 L 1196.597 2603.481 C 1199.045 2602.825 1200.498 2600.308 1199.843 2597.86 Z  M 1108.977 2457.179 C 1114.039 2457.179 1118.157 2461.297 1118.157 2466.358 C 1118.157 2471.42 1114.039 2475.538 1108.977 2475.538 C 1103.916 2475.538 1099.798 2471.42 1099.798 2466.358 C 1099.798 2461.297 1103.916 2457.179 1108.977 2457.179 Z  M 975.212 2604.1 L 1010.85 2471.099 L 1049.281 2481.397 L 1014.339 2490.759 C 1013.163 2491.075 1012.161 2491.843 1011.552 2492.898 C 1010.944 2493.952 1010.778 2495.205 1011.094 2496.38 L 1044.965 2622.791 L 975.212 2604.1 Z  M 1108.214 2639.738 L 1084.748 2633.451 L 1111.845 2626.19 L 1108.214 2639.738 Z  M 1056.786 2631.44 L 1021.148 2498.438 L 1095.286 2478.573 C 1095.555 2478.874 1095.833 2479.165 1096.12 2479.448 L 1088.433 2492.762 C 1087.166 2494.957 1087.918 2497.764 1090.113 2499.031 C 1090.836 2499.449 1091.625 2499.647 1092.404 2499.647 C 1093.99 2499.647 1095.533 2498.824 1096.383 2497.352 L 1104.066 2484.045 C 1105.63 2484.48 1107.276 2484.717 1108.977 2484.717 C 1117.823 2484.717 1125.227 2478.428 1126.955 2470.087 L 1154.15 2462.8 L 1189.788 2595.802 L 1056.786 2631.44 Z " fill="rgb(255,255,255)"/><path d=" M 1145.346 2518.616 C 1147.794 2517.96 1149.248 2515.443 1148.591 2512.995 C 1147.935 2510.546 1145.418 2509.093 1142.97 2509.75 L 1054.304 2533.508 C 1051.856 2534.164 1050.402 2536.681 1051.059 2539.129 C 1051.608 2541.179 1053.462 2542.532 1055.489 2542.532 C 1055.882 2542.532 1056.282 2542.481 1056.68 2542.374 L 1145.346 2518.616 Z " fill="rgb(255,255,255)"/><path d=" M 1150.692 2538.566 C 1153.141 2537.91 1154.594 2535.393 1153.937 2532.945 C 1153.281 2530.497 1150.764 2529.043 1148.316 2529.699 L 1059.65 2553.458 C 1057.201 2554.114 1055.748 2556.63 1056.405 2559.079 C 1056.954 2561.129 1058.808 2562.482 1060.835 2562.482 C 1061.228 2562.482 1061.628 2562.431 1062.026 2562.324 L 1150.692 2538.566 Z " fill="rgb(255,255,255)"/><path d=" M 1064.996 2573.407 C 1062.548 2574.063 1061.094 2576.58 1061.751 2579.028 C 1062.3 2581.079 1064.154 2582.431 1066.181 2582.431 C 1066.574 2582.431 1066.974 2582.381 1067.372 2582.274 L 1156.038 2558.516 C 1158.486 2557.86 1159.939 2555.343 1159.283 2552.895 C 1158.627 2550.447 1156.11 2548.993 1153.662 2549.649 L 1064.996 2573.407 Z " fill="rgb(255,255,255)"/><path d=" M 1114.674 2581.479 L 1070.341 2593.357 C 1067.893 2594.014 1066.44 2596.53 1067.096 2598.979 C 1067.645 2601.029 1069.5 2602.382 1071.526 2602.382 C 1071.919 2602.382 1072.32 2602.331 1072.717 2602.224 L 1117.05 2590.345 C 1119.498 2589.689 1120.952 2587.172 1120.295 2584.724 C 1119.639 2582.276 1117.121 2580.822 1114.674 2581.479 L 1114.674 2581.479 Z " fill="rgb(255,255,255)"/></g></g><g><rect x="0" y="0" width="1242" height="2428" transform="matrix(1,0,0,1,0,0)" fill="rgb(0,0,0)" fill-opacity="0.69"/><g><g><path d="M 240 413 L 1002 413 C 1037.323 413 1066 441.677 1066 477 L 1066 477 C 1066 512.323 1037.323 541 1002 541 L 240 541 C 204.677 541 176 512.323 176 477 L 176 477 C 176 441.677 204.677 413 240 413 Z" style="stroke:none;fill:#0055FF;stroke-miterlimit:10;"/><text transform="matrix(1,0,0,1,257.5,503.035)" style="font-family:'Open Sans';font-weight:400;font-size:80px;font-style:normal;fill:#ffffff;stroke:none;">Schedule Reminder</text></g><g><defs><linearGradient id="_lgradient_8" x1="-0.006944444444444244" y1="-0.0571665285832641" x2="0.90827802359882" y2="0.8298421450095685"><stop offset="0%" style="stop-color:#0B53C6"/><stop offset="98.26086956521739%" style="stop-color:#037575"/></linearGradient></defs><path d="M 165.643 565 L 1082.357 565 C 1147.286 565 1200 617.714 1200 682.643 L 1200 1654.357 C 1200 1719.286 1147.286 1772 1082.357 1772 L 165.643 1772 C 100.714 1772 48 1719.286 48 1654.357 L 48 682.643 C 48 617.714 100.714 565 165.643 565 Z" style="stroke:none;fill:url(#_lgradient_8);stroke-miterlimit:10;"/><g><text transform="matrix(1,0,0,1,106,738.131)" style="font-family:'Open Sans';font-weight:300;font-size:60px;font-style:normal;fill:#ffffff;stroke:none;">Title</text><path d="M 114.695 775.709 L 1133.305 775.709 C 1138.104 775.709 1142 779.605 1142 784.404 L 1142 869.305 C 1142 874.104 1138.104 878 1133.305 878 L 114.695 878 C 109.896 878 106 874.104 106 869.305 L 106 784.404 C 106 779.605 109.896 775.709 114.695 775.709 Z" style="stroke:none;fill:#FFFFFF;stroke-miterlimit:10;"/></g><g><text transform="matrix(1,0,0,1,104,989.422)" style="font-family:'Open Sans';font-weight:300;font-size:60px;font-style:normal;fill:#ffffff;stroke:none;">Description</text><path d="M 127.865 1027.209 L 1120.135 1027.209 C 1133.306 1027.209 1144 1037.903 1144 1051.074 L 1144 1144.635 C 1144 1157.806 1133.306 1168.5 1120.135 1168.5 L 127.865 1168.5 C 114.694 1168.5 104 1157.806 104 1144.635 L 104 1051.074 C 104 1037.903 114.694 1027.209 127.865 1027.209 Z" style="stroke:none;fill:#FFFFFF;stroke-miterlimit:10;"/></g><g><path d="M 165.167 1293.667 L 371.333 1293.667 C 403.988 1293.667 430.5 1320.178 430.5 1352.833 L 430.5 1352.833 C 430.5 1385.488 403.988 1412 371.333 1412 L 165.167 1412 C 132.512 1412 106 1385.488 106 1352.833 L 106 1352.833 C 106 1320.178 132.512 1293.667 165.167 1293.667 Z" style="stroke:none;fill:#FFFFFF;stroke-miterlimit:10;opacity:0.38;"/><text transform="matrix(1,0,0,1,175.25,1383.868)" style="font-family:'Open Sans';font-weight:400;font-size:80px;font-style:normal;fill:#ffffff;stroke:none;">Time</text></g><g><path d="M 876.667 1293.667 L 1082.833 1293.667 C 1115.488 1293.667 1142 1320.178 1142 1352.833 L 1142 1352.833 C 1142 1385.488 1115.488 1412 1082.833 1412 L 876.667 1412 C 844.012 1412 817.5 1385.488 817.5 1352.833 L 817.5 1352.833 C 817.5 1320.178 844.012 1293.667 876.667 1293.667 Z" style="stroke:none;fill:#FFFFFF;stroke-miterlimit:10;opacity:0.38;"/><text transform="matrix(1,0,0,1,886.75,1383.868)" style="font-family:'Open Sans';font-weight:400;font-size:80px;font-style:normal;fill:#ffffff;stroke:none;">Date</text></g></g></g></g><g><circle vector-effect="non-scaling-stroke" cx="621" cy="2401.4999999999995" r="121.5" fill="rgb(255,56,142)"/><path d=" M 635.135 2401.957 L 670.717 2368.603 C 676.044 2363.609 677.304 2356.286 673.53 2352.26 L 673.53 2352.26 C 669.755 2348.233 662.366 2349.018 657.04 2354.011 L 621.457 2387.365 L 588.103 2351.783 C 583.109 2346.456 575.786 2345.196 571.76 2348.97 L 571.76 2348.97 C 567.733 2352.745 568.518 2360.134 573.511 2365.46 L 606.865 2401.043 L 571.283 2434.397 C 565.956 2439.391 564.696 2446.714 568.47 2450.74 L 568.47 2450.74 C 572.245 2454.767 579.634 2453.982 584.96 2448.989 L 620.543 2415.635 L 653.897 2451.217 C 658.891 2456.544 666.214 2457.804 670.24 2454.03 L 670.24 2454.03 C 674.267 2450.255 673.482 2442.866 668.489 2437.54 L 635.135 2401.957 Z " fill-rule="evenodd" fill="rgb(235,235,235)"/></g><g><path d="M 416 1534 L 832 1534 C 880.569 1534 920 1573.431 920 1622 L 920 1622 C 920 1670.569 880.569 1710 832 1710 L 416 1710 C 367.431 1710 328 1670.569 328 1622 L 328 1622 C 328 1573.431 367.431 1534 416 1534 Z" style="stroke:none;fill:#FFFFFF;stroke-miterlimit:10;opacity:0.39;"/><g><path d=" M 852.438 1592.063 L 831.187 1570.812 C 828.906 1568.531 825.813 1567.25 822.588 1567.25 L 754.661 1567.25 C 747.944 1567.25 742.5 1572.694 742.5 1579.411 L 742.5 1668.589 C 742.5 1675.306 747.944 1680.75 754.661 1680.75 L 843.839 1680.75 C 850.556 1680.75 856 1675.306 856 1668.589 L 856 1600.662 C 856 1597.437 854.719 1594.344 852.438 1592.063 L 852.438 1592.063 Z  M 799.25 1664.536 C 790.295 1664.536 783.036 1657.276 783.036 1648.321 C 783.036 1639.367 790.295 1632.107 799.25 1632.107 C 808.205 1632.107 815.464 1639.367 815.464 1648.321 C 815.464 1657.276 808.205 1664.536 799.25 1664.536 Z  M 823.571 1587.386 L 823.571 1612.853 C 823.571 1614.532 822.21 1615.893 820.531 1615.893 L 761.754 1615.893 C 760.076 1615.893 758.714 1614.532 758.714 1612.853 L 758.714 1586.504 C 758.714 1584.826 760.076 1583.464 761.754 1583.464 L 819.65 1583.464 C 820.456 1583.464 821.229 1583.785 821.799 1584.355 L 822.681 1585.236 C 823.251 1585.807 823.572 1586.58 823.571 1587.386 L 823.571 1587.386 Z " fill="rgb(255,255,255)"/><text transform="matrix(1,0,0,1,390,1660.794)" style="font-family:'Open Sans';font-weight:400;font-size:100px;font-style:normal;fill:#ffffff;stroke:none;">Save</text></g></g></g></svg>