<?xml version="1.0" encoding="UTF-8" standalone="no"?><!-- Generator: Gravit.io --><svg xmlns="http://www.w3.org/2000/svg" xmlns:xlink="http://www.w3.org/1999/xlink" style="isolation:isolate" viewBox="0 0 1242 2688" width="1242pt" height="2688pt"><defs><clipPath id="_clipPath_ewca9bcx9pqfYZdUPbzCaUCjyGcL88jV"><rect width="1242" height="2688"/></clipPath></defs><g clip-path="url(#_clipPath_ewca9bcx9pqfYZdUPbzCaUCjyGcL88jV)"><rect width="1242" height="2688" style="fill:rgb(1,1,34)"/><g><g><circle vector-effect="non-scaling-stroke" cx="1072" cy="38.83178710937477" r="18" fill="rgb(235,235,235)"/><circle vector-effect="non-scaling-stroke" cx="1127" cy="38.83178710937477" r="18" fill="rgb(235,235,235)"/><circle vector-effect="non-scaling-stroke" cx="1182" cy="38.83178710937477" r="18" fill="rgb(235,235,235)"/></g><g><g><g><path d="M 719.005 180.168 L 1180 180.168 C 1180 180.168 1180 180.168 1180 180.168 L 1180 261.168 L 685 261.168 L 685 214.173 C 685 195.405 700.237 180.168 719.005 180.168 Z" style="stroke:none;fill:#EBEBEB;stroke-miterlimit:10;"/><defs><filter id="gScxpYGrhGaowxLRdcpGCpB0gyibgoz2" x="-200%" y="-200%" width="400%" height="400%" filterUnits="objectBoundingBox" color-interpolation-filters="sRGB"><feGaussianBlur xmlns="http://www.w3.org/2000/svg" in="SourceGraphic" stdDeviation="2.146804531419514"/><feOffset xmlns="http://www.w3.org/2000/svg" dx="0" dy="0" result="pf_100_offsetBlur"/><feFlood xmlns="http://www.w3.org/2000/svg" flood-color="#000000" flood-opacity="0.65"/><feComposite xmlns="http://www.w3.org/2000/svg" in2="pf_100_offsetBlur" operator="in" result="pf_100_dropShadow"/><feBlend xmlns="http://www.w3.org/2000/svg" in="SourceGraphic" in2="pf_100_dropShadow" mode="normal"/></filter></defs><g filter="url(#gScxpYGrhGaowxLRdcpGCpB0gyibgoz2)"><path d="M 935.114 180.168 L 1180 180.168 C 1180 180.168 1180 180.168 1180 180.168 L 1180 261.168 L 910 261.168 L 910 205.283 C 910 191.422 921.253 180.168 935.114 180.168 Z" style="stroke:none;fill:#EBEBEB;stroke-miterlimit:10;"/></g><text transform="matrix(1,0,0,1,729,236.186)" style="font-family:'Open Sans';font-weight:400;font-size:40px;font-style:normal;fill:#000000;stroke:none;">3:00 pm</text><text transform="matrix(1,0,0,1,911.5,238.048)" style="font-family:'Open Sans';font-weight:400;font-size:38px;font-style:normal;fill:#000000;stroke:none;">10 March 2020</text></g><g><path d="M 69.633 260.168 L 1180 260.168 L 1180 736.168 L 48 736.168 L 48 281.802 C 48 269.862 57.694 260.168 69.633 260.168 Z" style="stroke:none;fill:#EBEBEB;stroke-miterlimit:10;opacity:0.22;"/><rect x="48" y="693.168" width="1132" height="43" transform="matrix(1,0,0,1,0,0)" fill="rgb(0,215,143)"/><text transform="matrix(1,0,0,1,76,350.437)" style="font-family:'Open Sans';font-weight:600;font-size:62px;font-style:normal;fill:#ffffff;stroke:none;">Go To Naivas</text><text transform="matrix(1,0,0,1,76,430.161)" style="font-family:'Open Sans';font-weight:300;font-size:58px;font-style:normal;fill:#ffffff;stroke:none;">Buy : Milk, Deodrant, Pan, Tie, Soap,Dish </text><text transform="matrix(1,0,0,1,76,509.147)" style="font-family:'Open Sans';font-weight:300;font-size:58px;font-style:normal;fill:#ffffff;stroke:none;">washer and more unnormal description</text><text transform="matrix(1,0,0,1,76,641.641)" style="font-family:'Open Sans';font-weight:400;font-size:53px;font-style:normal;fill:#ffffff;stroke:none;">10 March 2020</text><text transform="matrix(1,0,0,1,915,641.641)" style="font-family:'Open Sans';font-weight:400;font-size:53px;font-style:normal;fill:#ffffff;stroke:none;">10:30 pm</text></g></g><g><g><path d="M 719.005 784.502 L 1180 784.502 C 1180 784.502 1180 784.502 1180 784.502 L 1180 865.502 L 685 865.502 L 685 818.506 C 685 799.739 700.237 784.502 719.005 784.502 Z" style="stroke:none;fill:#EBEBEB;stroke-miterlimit:10;"/><defs><filter id="MX91dBCzFa9qGX5yerlDqkfDXVR86pgL" x="-200%" y="-200%" width="400%" height="400%" filterUnits="objectBoundingBox" color-interpolation-filters="sRGB"><feGaussianBlur xmlns="http://www.w3.org/2000/svg" in="SourceGraphic" stdDeviation="2.146804531419514"/><feOffset xmlns="http://www.w3.org/2000/svg" dx="0" dy="0" result="pf_100_offsetBlur"/><feFlood xmlns="http://www.w3.org/2000/svg" flood-color="#000000" flood-opacity="0.65"/><feComposite xmlns="http://www.w3.org/2000/svg" in2="pf_100_offsetBlur" operator="in" result="pf_100_dropShadow"/><feBlend xmlns="http://www.w3.org/2000/svg" in="SourceGraphic" in2="pf_100_dropShadow" mode="normal"/></filter></defs><g filter="url(#MX91dBCzFa9qGX5yerlDqkfDXVR86pgL)"><path d="M 935.114 784.502 L 1180 784.502 C 1180 784.502 1180 784.502 1180 784.502 L 1180 865.502 L 910 865.502 L 910 809.616 C 910 795.755 921.253 784.502 935.114 784.502 Z" style="stroke:none;fill:#EBEBEB;stroke-miterlimit:10;"/></g><text transform="matrix(1,0,0,1,729,840.519)" style="font-family:'Open Sans';font-weight:400;font-size:40px;font-style:normal;fill:#000000;stroke:none;">3:00 pm</text><text transform="matrix(1,0,0,1,911.5,842.381)" style="font-family:'Open Sans';font-weight:400;font-size:38px;font-style:normal;fill:#000000;stroke:none;">10 March 2020</text></g><g><path d="M 69.633 864.502 L 1180 864.502 L 1180 1340.502 L 48 1340.502 L 48 886.135 C 48 874.195 57.694 864.502 69.633 864.502 Z" style="stroke:none;fill:#EBEBEB;stroke-miterlimit:10;opacity:0.22;"/><rect x="48" y="1297.502" width="1132" height="43" transform="matrix(1,0,0,1,0,0)" fill="rgb(255,0,174)" fill-opacity="0.93"/><text transform="matrix(1,0,0,1,76,954.77)" style="font-family:'Open Sans';font-weight:600;font-size:62px;font-style:normal;fill:#ffffff;stroke:none;">Go To Naivas</text><text transform="matrix(1,0,0,1,76,1034.495)" style="font-family:'Open Sans';font-weight:300;font-size:58px;font-style:normal;fill:#ffffff;stroke:none;">Buy : Milk, Deodrant, Pan, Tie, Soap,Dish </text><text transform="matrix(1,0,0,1,76,1113.48)" style="font-family:'Open Sans';font-weight:300;font-size:58px;font-style:normal;fill:#ffffff;stroke:none;">washer and more unnormal description</text><text transform="matrix(1,0,0,1,76,1245.974)" style="font-family:'Open Sans';font-weight:400;font-size:53px;font-style:normal;fill:#ffffff;stroke:none;">10 March 2020</text><text transform="matrix(1,0,0,1,915,1245.974)" style="font-family:'Open Sans';font-weight:400;font-size:53px;font-style:normal;fill:#ffffff;stroke:none;">8:00 pm</text></g></g><g><g><path d="M 719.005 1388.835 L 1180 1388.835 C 1180 1388.835 1180 1388.835 1180 1388.835 L 1180 1469.835 L 685 1469.835 L 685 1422.84 C 685 1404.072 700.237 1388.835 719.005 1388.835 Z" style="stroke:none;fill:#EBEBEB;stroke-miterlimit:10;"/><defs><filter id="ssHIH2PRrqeoXJK088AZ2S67zdT3x2eN" x="-200%" y="-200%" width="400%" height="400%" filterUnits="objectBoundingBox" color-interpolation-filters="sRGB"><feGaussianBlur xmlns="http://www.w3.org/2000/svg" in="SourceGraphic" stdDeviation="2.146804531419514"/><feOffset xmlns="http://www.w3.org/2000/svg" dx="0" dy="0" result="pf_100_offsetBlur"/><feFlood xmlns="http://www.w3.org/2000/svg" flood-color="#000000" flood-opacity="0.65"/><feComposite xmlns="http://www.w3.org/2000/svg" in2="pf_100_offsetBlur" operator="in" result="pf_100_dropShadow"/><feBlend xmlns="http://www.w3.org/2000/svg" in="SourceGraphic" in2="pf_100_dropShadow" mode="normal"/></filter></defs><g filter="url(#ssHIH2PRrqeoXJK088AZ2S67zdT3x2eN)"><path d="M 935.114 1388.835 L 1180 1388.835 C 1180 1388.835 1180 1388.835 1180 1388.835 L 1180 1469.835 L 910 1469.835 L 910 1413.949 C 910 1400.088 921.253 1388.835 935.114 1388.835 Z" style="stroke:none;fill:#EBEBEB;stroke-miterlimit:10;"/></g><text transform="matrix(1,0,0,1,729,1444.852)" style="font-family:'Open Sans';font-weight:400;font-size:40px;font-style:normal;fill:#000000;stroke:none;">3:00 pm</text><text transform="matrix(1,0,0,1,911.5,1446.715)" style="font-family:'Open Sans';font-weight:400;font-size:38px;font-style:normal;fill:#000000;stroke:none;">10 March 2020</text></g><g><path d="M 69.633 1468.835 L 1180 1468.835 L 1180 1944.835 L 48 1944.835 L 48 1490.468 C 48 1478.528 57.694 1468.835 69.633 1468.835 Z" style="stroke:none;fill:#EBEBEB;stroke-miterlimit:10;opacity:0.22;"/><rect x="48" y="1901.835" width="1132" height="43" transform="matrix(1,0,0,1,0,0)" fill="rgb(215,0,79)"/><text transform="matrix(1,0,0,1,76,1559.103)" style="font-family:'Open Sans';font-weight:600;font-size:62px;font-style:normal;fill:#ffffff;stroke:none;">Go To Naivas</text><text transform="matrix(1,0,0,1,76,1638.828)" style="font-family:'Open Sans';font-weight:300;font-size:58px;font-style:normal;fill:#ffffff;stroke:none;">Buy : Milk, Deodrant, Pan, Tie, Soap,Dish </text><text transform="matrix(1,0,0,1,76,1717.813)" style="font-family:'Open Sans';font-weight:300;font-size:58px;font-style:normal;fill:#ffffff;stroke:none;">washer and more unnormal description</text><text transform="matrix(1,0,0,1,76,1850.308)" style="font-family:'Open Sans';font-weight:400;font-size:53px;font-style:normal;fill:#ffffff;stroke:none;">8 March 2020</text><text transform="matrix(1,0,0,1,915,1850.308)" style="font-family:'Open Sans';font-weight:400;font-size:53px;font-style:normal;fill:#ffffff;stroke:none;">10:30 pm</text></g></g></g><g><g><path d="M 719.005 1993.168 L 1180 1993.168 C 1180 1993.168 1180 1993.168 1180 1993.168 L 1180 2074.168 L 685 2074.168 L 685 2027.173 C 685 2008.405 700.237 1993.168 719.005 1993.168 Z" style="stroke:none;fill:#EBEBEB;stroke-miterlimit:10;"/><defs><filter id="OGEspNtgjOhuPvRwaW9p4mOZnkJNGdI2" x="-200%" y="-200%" width="400%" height="400%" filterUnits="objectBoundingBox" color-interpolation-filters="sRGB"><feGaussianBlur xmlns="http://www.w3.org/2000/svg" in="SourceGraphic" stdDeviation="2.146804531419514"/><feOffset xmlns="http://www.w3.org/2000/svg" dx="0" dy="0" result="pf_100_offsetBlur"/><feFlood xmlns="http://www.w3.org/2000/svg" flood-color="#000000" flood-opacity="0.65"/><feComposite xmlns="http://www.w3.org/2000/svg" in2="pf_100_offsetBlur" operator="in" result="pf_100_dropShadow"/><feBlend xmlns="http://www.w3.org/2000/svg" in="SourceGraphic" in2="pf_100_dropShadow" mode="normal"/></filter></defs><g filter="url(#OGEspNtgjOhuPvRwaW9p4mOZnkJNGdI2)"><path d="M 935.114 1993.168 L 1180 1993.168 C 1180 1993.168 1180 1993.168 1180 1993.168 L 1180 2074.168 L 910 2074.168 L 910 2018.283 C 910 2004.422 921.253 1993.168 935.114 1993.168 Z" style="stroke:none;fill:#EBEBEB;stroke-miterlimit:10;"/></g><text transform="matrix(1,0,0,1,729,2049.186)" style="font-family:'Open Sans';font-weight:400;font-size:40px;font-style:normal;fill:#000000;stroke:none;">3:00 pm</text><text transform="matrix(1,0,0,1,911.5,2051.048)" style="font-family:'Open Sans';font-weight:400;font-size:38px;font-style:normal;fill:#000000;stroke:none;">10 March 2020</text></g><g><path d="M 69.633 2073.168 L 1180 2073.168 L 1180 2549.168 L 48 2549.168 L 48 2094.802 C 48 2082.862 57.694 2073.168 69.633 2073.168 Z" style="stroke:none;fill:#EBEBEB;stroke-miterlimit:10;opacity:0.22;"/><rect x="48" y="2506.168" width="1132" height="43" transform="matrix(1,0,0,1,0,0)" fill="rgb(215,0,79)"/><text transform="matrix(1,0,0,1,76,2163.437)" style="font-family:'Open Sans';font-weight:600;font-size:62px;font-style:normal;fill:#ffffff;stroke:none;">Go To Naivas</text><text transform="matrix(1,0,0,1,76,2243.161)" style="font-family:'Open Sans';font-weight:300;font-size:58px;font-style:normal;fill:#ffffff;stroke:none;">Buy : Milk, Deodrant, Pan, Tie, Soap,Dish </text><text transform="matrix(1,0,0,1,76,2322.147)" style="font-family:'Open Sans';font-weight:300;font-size:58px;font-style:normal;fill:#ffffff;stroke:none;">washer and more unnormal description</text><text transform="matrix(1,0,0,1,76,2454.641)" style="font-family:'Open Sans';font-weight:400;font-size:53px;font-style:normal;fill:#ffffff;stroke:none;">10 March 2020</text><text transform="matrix(1,0,0,1,915,2454.641)" style="font-family:'Open Sans';font-weight:400;font-size:53px;font-style:normal;fill:#ffffff;stroke:none;">10:30 pm</text></g></g><g><path d=" M 516.212 2488.734 L 0 2488.734 L 0 2679.168 L 1242 2679.168 L 1242 2488.734 L 725.788 2488.734 C 715.734 2532.189 672.61 2564.896 621 2564.896 C 569.39 2564.896 526.266 2532.189 516.212 2488.734 Z " fill-rule="evenodd" fill="rgb(0,98,255)"/><g><ellipse vector-effect="non-scaling-stroke" cx="621" cy="2465.9108599494475" rx="90.75" ry="86.65808823529414" fill="rgb(255,56,142)"/><path d=" M 628.469 2458.779 L 628.469 2423.993 C 628.469 2418.786 625.122 2414.558 621 2414.558 L 621 2414.558 C 616.878 2414.558 613.531 2418.786 613.531 2423.993 L 613.531 2458.779 L 577.103 2458.779 C 571.65 2458.779 567.222 2461.974 567.222 2465.911 L 567.222 2465.911 C 567.222 2469.847 571.65 2473.043 577.103 2473.043 L 613.531 2473.043 L 613.531 2507.829 C 613.531 2513.036 616.878 2517.264 621 2517.264 L 621 2517.264 C 625.122 2517.264 628.469 2513.036 628.469 2507.829 L 628.469 2473.043 L 664.897 2473.043 C 670.35 2473.043 674.778 2469.847 674.778 2465.911 L 674.778 2465.911 C 674.778 2461.974 670.35 2458.779 664.897 2458.779 L 628.469 2458.779 Z " fill-rule="evenodd" fill="rgb(235,235,235)"/></g><g><g><rect x="0" y="2488.734" width="277" height="190.434" transform="matrix(1,0,0,1,0,0)" fill="rgb(255,56,142)"/><path d="M 0 2493.727 L 277 2493.727 L 277 2493.727 L 277 2484.816 C 277 2474.382 268.529 2465.911 258.095 2465.911 L 18.905 2465.911 C 8.471 2465.911 0 2474.382 0 2484.816 L 0 2493.727 Z" style="stroke:none;fill:#FFFFFF;stroke-miterlimit:10;"/></g><path d=" M 194.846 2629.253 L 185.102 2611.902 C 180.602 2603.894 178.224 2594.721 178.224 2585.385 L 178.224 2570.186 C 178.224 2550.998 166.238 2534.769 149.848 2529.537 L 149.848 2518.655 C 149.848 2511.968 144.758 2506.53 138.498 2506.53 C 132.239 2506.53 127.148 2511.968 127.148 2518.655 L 127.148 2529.537 C 110.759 2534.769 98.773 2550.998 98.773 2570.186 L 98.773 2585.385 C 98.773 2594.721 96.395 2603.888 91.9 2611.896 L 82.156 2629.247 C 81.629 2630.187 81.617 2631.351 82.122 2632.303 C 82.628 2633.254 83.564 2633.843 84.585 2633.843 L 192.411 2633.843 C 193.433 2633.843 194.375 2633.255 194.88 2632.309 C 195.385 2631.363 195.368 2630.187 194.846 2629.253 Z  M 120.628 2639.905 C 123.828 2647.047 130.604 2652.03 138.498 2652.03 C 146.392 2652.03 153.168 2647.047 156.369 2639.905 L 120.628 2639.905 L 120.628 2639.905 Z " fill-rule="evenodd" fill="rgb(255,255,255)"/></g><g><path d=" M 1195.873 2614.877 L 1165.3 2513.691 C 1165.047 2512.852 1164.429 2512.138 1163.581 2511.704 C 1162.732 2511.269 1161.724 2511.152 1160.78 2511.377 L 1136.845 2517.065 C 1134.926 2511.806 1129.354 2507.992 1122.795 2507.992 C 1114.653 2507.992 1108.029 2513.866 1108.029 2521.086 C 1108.029 2522.029 1108.145 2522.947 1108.359 2523.834 L 1089.046 2528.423 L 1042.22 2517.295 C 1040.251 2516.827 1038.228 2517.864 1037.7 2519.61 L 1007.127 2620.796 C 1006.599 2622.542 1007.768 2624.337 1009.737 2624.805 L 1073.519 2639.961 L 1074.643 2643.684 C 1075.085 2645.146 1076.577 2646.111 1078.207 2646.111 C 1078.523 2646.111 1078.845 2646.075 1079.164 2645.999 L 1089.046 2643.65 L 1123.836 2651.917 C 1124.156 2651.993 1124.477 2652.03 1124.793 2652.03 C 1126.423 2652.03 1127.914 2651.065 1128.356 2649.603 L 1133.334 2633.127 L 1193.263 2618.886 C 1195.232 2618.418 1196.401 2616.623 1195.873 2614.877 Z  M 1122.795 2514.538 C 1126.865 2514.538 1130.177 2517.475 1130.177 2521.085 C 1130.177 2524.696 1126.865 2527.633 1122.795 2527.633 C 1118.724 2527.633 1115.412 2524.696 1115.412 2521.085 C 1115.412 2517.475 1118.724 2514.538 1122.795 2514.538 Z  M 1015.213 2619.328 L 1043.875 2524.467 L 1074.784 2531.811 L 1046.681 2538.489 C 1045.735 2538.714 1044.93 2539.262 1044.44 2540.014 C 1043.951 2540.766 1043.818 2541.66 1044.071 2542.498 L 1071.313 2632.659 L 1015.213 2619.328 Z  M 1122.181 2644.746 L 1103.308 2640.262 L 1125.101 2635.083 L 1122.181 2644.746 Z  M 1080.819 2638.827 L 1052.158 2543.966 L 1111.784 2529.797 C 1112 2530.012 1112.223 2530.22 1112.454 2530.421 L 1106.272 2539.917 C 1105.253 2541.483 1105.858 2543.485 1107.623 2544.389 C 1108.204 2544.687 1108.839 2544.829 1109.465 2544.829 C 1110.741 2544.829 1111.982 2544.241 1112.665 2543.191 L 1118.844 2533.7 C 1120.102 2534.011 1121.426 2534.18 1122.795 2534.18 C 1129.909 2534.18 1135.863 2529.694 1137.253 2523.745 L 1159.125 2518.548 L 1187.787 2613.409 L 1080.819 2638.827 Z " fill="rgb(255,255,255)"/><path d=" M 1152.044 2558.358 C 1154.013 2557.89 1155.182 2556.095 1154.654 2554.348 C 1154.126 2552.602 1152.102 2551.565 1150.133 2552.034 L 1078.824 2568.979 C 1076.854 2569.447 1075.686 2571.242 1076.213 2572.988 C 1076.655 2574.451 1078.147 2575.415 1079.777 2575.415 C 1080.093 2575.415 1080.415 2575.379 1080.734 2575.303 L 1152.044 2558.358 Z " fill="rgb(255,255,255)"/><path d=" M 1156.344 2572.587 C 1158.313 2572.119 1159.482 2570.324 1158.954 2568.577 C 1158.426 2566.831 1156.401 2565.794 1154.433 2566.263 L 1083.123 2583.208 C 1081.154 2583.676 1079.985 2585.471 1080.513 2587.217 C 1080.955 2588.68 1082.446 2589.644 1084.076 2589.644 C 1084.392 2589.644 1084.714 2589.608 1085.034 2589.532 L 1156.344 2572.587 Z " fill="rgb(255,255,255)"/><path d=" M 1087.423 2597.436 C 1085.453 2597.905 1084.285 2599.7 1084.812 2601.446 C 1085.254 2602.908 1086.746 2603.873 1088.376 2603.873 C 1088.692 2603.873 1089.014 2603.837 1089.333 2603.76 L 1160.643 2586.816 C 1162.612 2586.348 1163.781 2584.553 1163.253 2582.806 C 1162.725 2581.06 1160.701 2580.023 1158.732 2580.492 L 1087.423 2597.436 Z " fill="rgb(255,255,255)"/><path d=" M 1127.376 2603.193 L 1091.721 2611.666 C 1089.752 2612.134 1088.583 2613.929 1089.111 2615.675 C 1089.553 2617.138 1091.045 2618.102 1092.675 2618.102 C 1092.991 2618.102 1093.312 2618.066 1093.632 2617.99 L 1129.287 2609.517 C 1131.256 2609.049 1132.425 2607.254 1131.897 2605.508 C 1131.369 2603.762 1129.344 2602.725 1127.376 2603.193 L 1127.376 2603.193 Z " fill="rgb(255,255,255)"/></g></g></g><text transform="matrix(1,0,0,1,17.5,86.819)" style="font-family:'Open Sans';font-weight:400;font-size:70px;font-style:normal;fill:#ffffff;stroke:none;">Reminders</text></g></svg>