<?xml version="1.0" encoding="UTF-8" standalone="no"?><!-- Generator: Gravit.io --><svg xmlns="http://www.w3.org/2000/svg" xmlns:xlink="http://www.w3.org/1999/xlink" style="isolation:isolate" viewBox="0 0 1242 2688" width="1242pt" height="2688pt"><defs><clipPath id="_clipPath_h0tz4uQNEUoQgZsK3zANiQeT1tNIHENx"><rect width="1242" height="2688"/></clipPath></defs><g clip-path="url(#_clipPath_h0tz4uQNEUoQgZsK3zANiQeT1tNIHENx)"><rect width="1242" height="2688" style="fill:rgb(1,1,34)"/><g><g><g><g><linearGradient id="_lgradient_0" x1="0" y1="0.5" x2="1" y2="0.5" gradientTransform="matrix(1207,0,0,68,17.5,143)" gradientUnits="userSpaceOnUse"><stop offset="0%" stop-opacity="1" style="stop-color:rgb(0,150,136)"/><stop offset="97.3913043478261%" stop-opacity="1" style="stop-color:rgb(0,98,255)"/></linearGradient><rect x="17.5" y="143" width="1207" height="68" transform="matrix(1,0,0,1,0,0)" fill="url(#_lgradient_0)"/><rect x="17.5" y="211" width="1207" height="239" transform="matrix(1,0,0,1,0,0)" fill="rgb(255,255,255)" fill-opacity="0.13"/></g><text transform="matrix(1,0,0,1,32.25,271.787)" style="font-family:'Open Sans';font-weight:300;font-size:55px;font-style:normal;fill:#ffffff;stroke:none;">This is a sample reminder of the reminder app </text><text transform="matrix(1,0,0,1,32.25,346.687)" style="font-family:'Open Sans';font-weight:300;font-size:55px;font-style:normal;fill:#ffffff;stroke:none;">or rather progressive web app am planning on </text><text transform="matrix(1,0,0,1,32.25,421.586)" style="font-family:'Open Sans';font-weight:300;font-size:55px;font-style:normal;fill:#ffffff;stroke:none;">making</text></g><g><g><linearGradient id="_lgradient_1" x1="0" y1="0.5" x2="1" y2="0.5" gradientTransform="matrix(1207,0,0,68,17.5,1555)" gradientUnits="userSpaceOnUse"><stop offset="0%" stop-opacity="1" style="stop-color:rgb(0,150,136)"/><stop offset="97.3913043478261%" stop-opacity="1" style="stop-color:rgb(0,98,255)"/></linearGradient><rect x="17.5" y="1555" width="1207" height="68" transform="matrix(1,0,0,1,0,0)" fill="url(#_lgradient_1)"/><rect x="17.5" y="1623" width="1207" height="239" transform="matrix(1,0,0,1,0,0)" fill="rgb(255,255,255)" fill-opacity="0.13"/></g><text transform="matrix(1,0,0,1,32.25,1683.787)" style="font-family:'Open Sans';font-weight:300;font-size:55px;font-style:normal;fill:#ffffff;stroke:none;">This is a sample reminder of the reminder app </text><text transform="matrix(1,0,0,1,32.25,1758.687)" style="font-family:'Open Sans';font-weight:300;font-size:55px;font-style:normal;fill:#ffffff;stroke:none;">or rather progressive web app am planning on </text><text transform="matrix(1,0,0,1,32.25,1833.586)" style="font-family:'Open Sans';font-weight:300;font-size:55px;font-style:normal;fill:#ffffff;stroke:none;">making</text></g><g><g><linearGradient id="_lgradient_2" x1="0" y1="0.5" x2="1" y2="0.5" gradientTransform="matrix(1207,0,0,68,17.5,503)" gradientUnits="userSpaceOnUse"><stop offset="1.3043478260869565%" stop-opacity="1" style="stop-color:rgb(255,153,0)"/><stop offset="98.26086956521739%" stop-opacity="1" style="stop-color:rgb(255,0,255)"/></linearGradient><rect x="17.5" y="503" width="1207" height="68" transform="matrix(1,0,0,1,0,0)" fill="url(#_lgradient_2)"/><rect x="17.5" y="571" width="1207" height="239" transform="matrix(1,0,0,1,0,0)" fill="rgb(255,255,255)" fill-opacity="0.13"/></g><text transform="matrix(1,0,0,1,32.25,631.787)" style="font-family:'Open Sans';font-weight:300;font-size:55px;font-style:normal;fill:#ffffff;stroke:none;">This is a sample reminder of the reminder app </text><text transform="matrix(1,0,0,1,32.25,706.687)" style="font-family:'Open Sans';font-weight:300;font-size:55px;font-style:normal;fill:#ffffff;stroke:none;">or rather progressive web app am planning on </text><text transform="matrix(1,0,0,1,32.25,781.586)" style="font-family:'Open Sans';font-weight:300;font-size:55px;font-style:normal;fill:#ffffff;stroke:none;">making</text></g><g><g><linearGradient id="_lgradient_3" x1="0" y1="0.5" x2="1" y2="0.5" gradientTransform="matrix(1207,0,0,68,17.5,1915)" gradientUnits="userSpaceOnUse"><stop offset="1.3043478260869565%" stop-opacity="1" style="stop-color:rgb(255,153,0)"/><stop offset="98.26086956521739%" stop-opacity="1" style="stop-color:rgb(255,0,255)"/></linearGradient><rect x="17.5" y="1915" width="1207" height="68" transform="matrix(1,0,0,1,0,0)" fill="url(#_lgradient_3)"/><rect x="17.5" y="1983" width="1207" height="239" transform="matrix(1,0,0,1,0,0)" fill="rgb(255,255,255)" fill-opacity="0.13"/></g><text transform="matrix(1,0,0,1,32.25,2043.787)" style="font-family:'Open Sans';font-weight:300;font-size:55px;font-style:normal;fill:#ffffff;stroke:none;">This is a sample reminder of the reminder app </text><text transform="matrix(1,0,0,1,32.25,2118.687)" style="font-family:'Open Sans';font-weight:300;font-size:55px;font-style:normal;fill:#ffffff;stroke:none;">or rather progressive web app am planning on </text><text transform="matrix(1,0,0,1,32.25,2193.586)" style="font-family:'Open Sans';font-weight:300;font-size:55px;font-style:normal;fill:#ffffff;stroke:none;">making</text></g><g><g><linearGradient id="_lgradient_4" x1="0" y1="0.5" x2="1" y2="0.5" gradientTransform="matrix(1207,0,0,68,17.5,855)" gradientUnits="userSpaceOnUse"><stop offset="1.7391304347826086%" stop-opacity="1" style="stop-color:rgb(153,0,255)"/><stop offset="98.69565217391305%" stop-opacity="1" style="stop-color:rgb(76,76,240)"/></linearGradient><rect x="17.5" y="855" width="1207" height="68" transform="matrix(1,0,0,1,0,0)" fill="url(#_lgradient_4)"/><rect x="17.5" y="923" width="1207" height="239" transform="matrix(1,0,0,1,0,0)" fill="rgb(255,255,255)" fill-opacity="0.13"/></g><text transform="matrix(1,0,0,1,32.25,983.787)" style="font-family:'Open Sans';font-weight:300;font-size:55px;font-style:normal;fill:#ffffff;stroke:none;">This is a sample reminder of the reminder app </text><text transform="matrix(1,0,0,1,32.25,1058.687)" style="font-family:'Open Sans';font-weight:300;font-size:55px;font-style:normal;fill:#ffffff;stroke:none;">or rather progressive web app am planning on </text><text transform="matrix(1,0,0,1,32.25,1133.586)" style="font-family:'Open Sans';font-weight:300;font-size:55px;font-style:normal;fill:#ffffff;stroke:none;">making</text></g><g><g><linearGradient id="_lgradient_5" x1="0" y1="0.5" x2="1" y2="0.5" gradientTransform="matrix(1207,0,0,68,17.5,2267)" gradientUnits="userSpaceOnUse"><stop offset="1.7391304347826086%" stop-opacity="1" style="stop-color:rgb(153,0,255)"/><stop offset="98.69565217391305%" stop-opacity="1" style="stop-color:rgb(76,76,240)"/></linearGradient><rect x="17.5" y="2267" width="1207" height="68" transform="matrix(1,0,0,1,0,0)" fill="url(#_lgradient_5)"/><rect x="17.5" y="2335" width="1207" height="239" transform="matrix(1,0,0,1,0,0)" fill="rgb(255,255,255)" fill-opacity="0.13"/></g><text transform="matrix(1,0,0,1,32.25,2395.787)" style="font-family:'Open Sans';font-weight:300;font-size:55px;font-style:normal;fill:#ffffff;stroke:none;">This is a sample reminder of the reminder app </text><text transform="matrix(1,0,0,1,32.25,2470.687)" style="font-family:'Open Sans';font-weight:300;font-size:55px;font-style:normal;fill:#ffffff;stroke:none;">or rather progressive web app am planning on </text><text transform="matrix(1,0,0,1,32.25,2545.586)" style="font-family:'Open Sans';font-weight:300;font-size:55px;font-style:normal;fill:#ffffff;stroke:none;">making</text></g><g><g><linearGradient id="_lgradient_6" x1="0" y1="0.5" x2="1" y2="0.5" gradientTransform="matrix(1207,0,0,68,17.5,1207)" gradientUnits="userSpaceOnUse"><stop offset="2.1739130434782608%" stop-opacity="1" style="stop-color:rgb(255,153,0)"/><stop offset="98.69565217391305%" stop-opacity="1" style="stop-color:rgb(0,150,136)"/></linearGradient><rect x="17.5" y="1207" width="1207" height="68" transform="matrix(1,0,0,1,0,0)" fill="url(#_lgradient_6)"/><rect x="17.5" y="1275" width="1207" height="239" transform="matrix(1,0,0,1,0,0)" fill="rgb(255,255,255)" fill-opacity="0.13"/></g><text transform="matrix(1,0,0,1,32.25,1335.787)" style="font-family:'Open Sans';font-weight:300;font-size:55px;font-style:normal;fill:#ffffff;stroke:none;">This is a sample reminder of the reminder app </text><text transform="matrix(1,0,0,1,32.25,1410.687)" style="font-family:'Open Sans';font-weight:300;font-size:55px;font-style:normal;fill:#ffffff;stroke:none;">or rather progressive web app am planning on </text><text transform="matrix(1,0,0,1,32.25,1485.586)" style="font-family:'Open Sans';font-weight:300;font-size:55px;font-style:normal;fill:#ffffff;stroke:none;">making</text></g></g><text transform="matrix(1,0,0,1,17.5,86.819)" style="font-family:'Open Sans';font-weight:400;font-size:70px;font-style:normal;fill:#ffffff;stroke:none;">Sticky Notes</text><g><circle vector-effect="non-scaling-stroke" cx="1072" cy="47.66357421875" r="18" fill="rgb(235,235,235)"/><circle vector-effect="non-scaling-stroke" cx="1127" cy="47.66357421875" r="18" fill="rgb(235,235,235)"/><circle vector-effect="non-scaling-stroke" cx="1182" cy="47.66357421875" r="18" fill="rgb(235,235,235)"/></g><g><path d=" M 487.947 2421 L 0 2421 L 0 2688 L 1242 2688 L 1242 2421 L 754.053 2421 C 746.135 2487.426 689.543 2539 621 2539 C 552.457 2539 495.865 2487.426 487.947 2421 Z " fill-rule="evenodd" fill="rgb(0,98,255)"/><g><circle vector-effect="non-scaling-stroke" cx="621" cy="2401.5" r="121.5" fill="rgb(255,153,0)"/><path d=" M 631 2391.5 L 631 2342.729 C 631 2335.428 626.519 2329.5 621 2329.5 L 621 2329.5 C 615.481 2329.5 611 2335.428 611 2342.729 L 611 2391.5 L 562.229 2391.5 C 554.928 2391.5 549 2395.981 549 2401.5 L 549 2401.5 C 549 2407.019 554.928 2411.5 562.229 2411.5 L 611 2411.5 L 611 2460.271 C 611 2467.572 615.481 2473.5 621 2473.5 L 621 2473.5 C 626.519 2473.5 631 2467.572 631 2460.271 L 631 2411.5 L 679.771 2411.5 C 687.072 2411.5 693 2407.019 693 2401.5 L 693 2401.5 C 693 2395.981 687.072 2391.5 679.771 2391.5 L 631 2391.5 Z " fill-rule="evenodd" fill="rgb(235,235,235)"/></g><path d=" M 226.397 2618.016 L 211.803 2593.689 C 205.062 2582.461 201.501 2569.6 201.501 2556.51 L 201.501 2535.2 C 201.501 2508.298 183.549 2485.544 159.001 2478.208 L 159.001 2462.951 C 159.001 2453.575 151.376 2445.95 142 2445.95 C 132.625 2445.95 125 2453.575 125 2462.951 L 125 2478.208 C 100.453 2485.544 82.501 2508.298 82.501 2535.2 L 82.501 2556.51 C 82.501 2569.6 78.939 2582.452 72.207 2593.681 L 57.613 2618.008 C 56.822 2619.325 56.805 2620.957 57.562 2622.292 C 58.318 2623.626 59.721 2624.451 61.251 2624.451 L 222.751 2624.451 C 224.281 2624.451 225.691 2623.626 226.448 2622.3 C 227.205 2620.974 227.179 2619.325 226.397 2618.016 Z  M 115.234 2632.95 C 120.028 2642.963 130.177 2649.95 142 2649.95 C 153.824 2649.95 163.973 2642.963 168.767 2632.95 L 115.234 2632.95 L 115.234 2632.95 Z " fill-rule="evenodd" fill="rgb(255,255,255)"/><g><g><rect x="965" y="2421" width="277" height="267" transform="matrix(1,0,0,1,0,0)" fill="rgb(255,153,0)"/><path d="M 965 2428 L 1242 2428 L 1242 2428 L 1242 2411.385 C 1242 2399.03 1231.97 2389 1219.615 2389 L 987.385 2389 C 975.03 2389 965 2399.03 965 2411.385 L 965 2428 Z" style="stroke:none;fill:#FFFFFF;stroke-miterlimit:10;"/></g><g><path d=" M 1220.843 2597.86 L 1182.829 2455.991 C 1182.513 2454.815 1181.745 2453.813 1180.69 2453.204 C 1179.635 2452.595 1178.382 2452.431 1177.207 2452.746 L 1147.447 2460.721 C 1145.062 2453.348 1138.134 2448 1129.977 2448 C 1119.854 2448 1111.618 2456.236 1111.618 2466.359 C 1111.618 2467.681 1111.762 2468.968 1112.028 2470.211 L 1088.014 2476.646 L 1029.792 2461.044 C 1027.343 2460.388 1024.828 2461.841 1024.171 2464.29 L 986.157 2606.158 C 985.501 2608.606 986.954 2611.123 989.403 2611.779 L 1068.708 2633.029 L 1070.107 2638.249 C 1070.656 2640.299 1072.51 2641.652 1074.537 2641.652 C 1074.93 2641.652 1075.33 2641.601 1075.728 2641.494 L 1088.015 2638.202 L 1131.272 2649.792 C 1131.67 2649.899 1132.069 2649.95 1132.462 2649.95 C 1134.489 2649.95 1136.343 2648.598 1136.893 2646.547 L 1143.082 2623.447 L 1217.597 2603.481 C 1220.045 2602.825 1221.498 2600.308 1220.843 2597.86 Z  M 1129.977 2457.179 C 1135.039 2457.179 1139.157 2461.297 1139.157 2466.358 C 1139.157 2471.42 1135.039 2475.538 1129.977 2475.538 C 1124.916 2475.538 1120.798 2471.42 1120.798 2466.358 C 1120.798 2461.297 1124.916 2457.179 1129.977 2457.179 Z  M 996.212 2604.1 L 1031.85 2471.099 L 1070.281 2481.397 L 1035.339 2490.759 C 1034.163 2491.075 1033.161 2491.843 1032.552 2492.898 C 1031.944 2493.952 1031.778 2495.205 1032.094 2496.38 L 1065.965 2622.791 L 996.212 2604.1 Z  M 1129.214 2639.738 L 1105.748 2633.451 L 1132.845 2626.19 L 1129.214 2639.738 Z  M 1077.786 2631.44 L 1042.148 2498.438 L 1116.286 2478.573 C 1116.555 2478.874 1116.833 2479.165 1117.12 2479.448 L 1109.433 2492.762 C 1108.166 2494.957 1108.918 2497.764 1111.113 2499.031 C 1111.836 2499.449 1112.625 2499.647 1113.404 2499.647 C 1114.99 2499.647 1116.533 2498.824 1117.383 2497.352 L 1125.066 2484.045 C 1126.63 2484.48 1128.276 2484.717 1129.977 2484.717 C 1138.823 2484.717 1146.227 2478.428 1147.955 2470.087 L 1175.15 2462.8 L 1210.788 2595.802 L 1077.786 2631.44 Z " fill="rgb(255,255,255)"/><path d=" M 1166.346 2518.616 C 1168.794 2517.96 1170.248 2515.443 1169.591 2512.995 C 1168.935 2510.546 1166.418 2509.093 1163.97 2509.75 L 1075.304 2533.508 C 1072.856 2534.164 1071.402 2536.681 1072.059 2539.129 C 1072.608 2541.179 1074.462 2542.532 1076.489 2542.532 C 1076.882 2542.532 1077.282 2542.481 1077.68 2542.374 L 1166.346 2518.616 Z " fill="rgb(255,255,255)"/><path d=" M 1171.692 2538.566 C 1174.141 2537.91 1175.594 2535.393 1174.937 2532.945 C 1174.281 2530.497 1171.764 2529.043 1169.316 2529.699 L 1080.65 2553.458 C 1078.201 2554.114 1076.748 2556.63 1077.405 2559.079 C 1077.954 2561.129 1079.808 2562.482 1081.835 2562.482 C 1082.228 2562.482 1082.628 2562.431 1083.026 2562.324 L 1171.692 2538.566 Z " fill="rgb(255,255,255)"/><path d=" M 1085.996 2573.407 C 1083.548 2574.063 1082.094 2576.58 1082.751 2579.028 C 1083.3 2581.079 1085.154 2582.431 1087.181 2582.431 C 1087.574 2582.431 1087.974 2582.381 1088.372 2582.274 L 1177.038 2558.516 C 1179.486 2557.86 1180.939 2555.343 1180.283 2552.895 C 1179.627 2550.447 1177.11 2548.993 1174.662 2549.649 L 1085.996 2573.407 Z " fill="rgb(255,255,255)"/><path d=" M 1135.674 2581.479 L 1091.341 2593.357 C 1088.893 2594.014 1087.44 2596.53 1088.096 2598.979 C 1088.645 2601.029 1090.5 2602.382 1092.526 2602.382 C 1092.919 2602.382 1093.32 2602.331 1093.717 2602.224 L 1138.05 2590.345 C 1140.498 2589.689 1141.952 2587.172 1141.295 2584.724 C 1140.639 2582.276 1138.121 2580.822 1135.674 2581.479 L 1135.674 2581.479 Z " fill="rgb(255,255,255)"/></g></g></g></g></g></svg>