<?xml version="1.0" encoding="UTF-8" standalone="no"?><!-- Generator: Gravit.io --><svg xmlns="http://www.w3.org/2000/svg" xmlns:xlink="http://www.w3.org/1999/xlink" style="isolation:isolate" viewBox="53.503 2445.95 169.993 204" width="169.993pt" height="204pt"><path d=" M 222.894 2618.016 L 208.3 2593.689 C 201.559 2582.461 197.998 2569.6 197.998 2556.51 L 197.998 2535.2 C 197.998 2508.298 180.046 2485.544 155.497 2478.208 L 155.497 2462.951 C 155.497 2453.575 147.873 2445.95 138.497 2445.95 C 129.122 2445.95 121.497 2453.575 121.497 2462.951 L 121.497 2478.208 C 96.949 2485.544 78.997 2508.298 78.997 2535.2 L 78.997 2556.51 C 78.997 2569.6 75.436 2582.452 68.704 2593.681 L 54.109 2618.008 C 53.319 2619.325 53.302 2620.957 54.058 2622.292 C 54.815 2623.626 56.218 2624.451 57.748 2624.451 L 219.247 2624.451 C 220.777 2624.451 222.188 2623.626 222.945 2622.3 C 223.702 2620.974 223.676 2619.325 222.894 2618.016 Z  M 111.731 2632.95 C 116.525 2642.963 126.674 2649.95 138.497 2649.95 C 150.321 2649.95 160.47 2642.963 165.264 2632.95 L 111.731 2632.95 L 111.731 2632.95 Z " fill-rule="evenodd" fill="rgb(255,255,255)"/></svg>