<?xml version="1.0" encoding="UTF-8" standalone="no"?><!-- Generator: Gravit.io --><svg xmlns="http://www.w3.org/2000/svg" xmlns:xlink="http://www.w3.org/1999/xlink" style="isolation:isolate" viewBox="521 1155.659 136 136" width="136pt" height="136pt"><g><circle vector-effect="non-scaling-stroke" cx="589" cy="1223.6589730149858" r="68" fill="rgb(196,190,255)"/><path d=" M 625.115 1207.305 L 552.885 1207.305 C 551.756 1207.305 550.841 1206.39 550.841 1205.261 L 550.841 1199.128 C 550.841 1194.612 554.502 1190.951 559.018 1190.951 L 567.195 1190.951 L 567.195 1182.093 C 567.195 1180.964 568.11 1180.049 569.239 1180.049 L 576.053 1180.049 C 577.182 1180.049 578.097 1180.964 578.097 1182.093 L 578.097 1190.951 L 599.903 1190.951 L 599.903 1182.093 C 599.903 1180.964 600.818 1180.049 601.947 1180.049 L 608.761 1180.049 C 609.89 1180.049 610.805 1180.964 610.805 1182.093 L 610.805 1190.951 L 618.982 1190.951 C 623.498 1190.951 627.159 1194.612 627.159 1199.128 L 627.159 1205.261 C 627.159 1206.39 626.244 1207.305 625.115 1207.305 Z  M 552.885 1212.756 L 625.115 1212.756 C 626.244 1212.756 627.159 1213.672 627.159 1214.801 L 627.159 1259.092 C 627.159 1263.608 623.498 1267.269 618.982 1267.269 L 559.018 1267.269 C 554.502 1267.269 550.841 1263.608 550.841 1259.092 L 550.841 1214.801 C 550.841 1213.672 551.756 1212.756 552.885 1212.756 Z  M 609.663 1229.101 L 604.864 1224.264 C 604.069 1223.462 602.775 1223.457 601.974 1224.252 L 583.91 1242.17 L 576.077 1234.274 C 575.282 1233.473 573.988 1233.467 573.186 1234.263 L 568.349 1239.061 C 567.547 1239.856 567.542 1241.151 568.337 1241.952 L 582.408 1256.137 C 583.203 1256.939 584.498 1256.944 585.299 1256.149 L 609.651 1231.992 C 610.453 1231.197 610.458 1229.903 609.663 1229.101 L 609.663 1229.101 Z " fill="rgb(142,81,255)"/></g></svg>