<?xml version="1.0" encoding="UTF-8" standalone="no"?><!-- Generator: Gravit.io --><svg xmlns="http://www.w3.org/2000/svg" xmlns:xlink="http://www.w3.org/1999/xlink" style="isolation:isolate" viewBox="749.859 1556.359 87.282 87.282" width="87.282pt" height="87.282pt"><path d=" M 793.5 1588.417 L 765.254 1560.17 C 761.025 1555.942 754.997 1555.104 751.8 1558.3 L 751.8 1558.3 C 748.604 1561.497 749.442 1567.525 753.67 1571.754 L 781.917 1600 L 753.67 1628.246 C 749.442 1632.475 748.604 1638.503 751.8 1641.7 L 751.8 1641.7 C 754.997 1644.896 761.025 1644.058 765.254 1639.83 L 793.5 1611.583 L 821.746 1639.83 C 825.975 1644.058 832.003 1644.896 835.2 1641.7 L 835.2 1641.7 C 838.396 1638.503 837.558 1632.475 833.33 1628.246 L 805.083 1600 L 833.33 1571.754 C 837.558 1567.525 838.396 1561.497 835.2 1558.3 L 835.2 1558.3 C 832.003 1555.104 825.975 1555.942 821.746 1560.17 L 793.5 1588.417 Z " fill-rule="evenodd" fill="rgb(255,255,255)"/></svg>