<?xml version="1.0" encoding="UTF-8" standalone="no"?><!-- Generator: Gravit.io --><svg xmlns="http://www.w3.org/2000/svg" xmlns:xlink="http://www.w3.org/1999/xlink" style="isolation:isolate" viewBox="522.25 2462.056 163 144.889" width="163pt" height="144.889pt"><path d=" M 573.626 2491.136 L 573.626 2491.136 C 574.856 2490.708 576.203 2491.36 576.631 2492.59 L 593.149 2540.078 C 593.577 2541.309 592.925 2542.655 591.695 2543.083 L 591.695 2543.083 C 590.464 2543.511 589.117 2542.86 588.689 2541.629 L 572.172 2494.141 C 571.744 2492.911 572.395 2491.564 573.626 2491.136 L 573.626 2491.136 L 573.626 2491.136 L 573.626 2491.136 L 573.626 2491.136 L 573.626 2491.136 L 573.626 2491.136 L 573.626 2491.136 L 573.626 2491.136 Z  M 590.735 2490.52 L 590.735 2490.52 C 591.966 2490.092 593.312 2490.744 593.74 2491.974 L 610.258 2539.462 C 610.686 2540.693 610.035 2542.039 608.804 2542.467 L 608.804 2542.467 C 607.574 2542.895 606.227 2542.244 605.799 2541.013 L 589.281 2493.525 C 588.853 2492.295 589.505 2490.948 590.735 2490.52 L 590.735 2490.52 L 590.735 2490.52 L 590.735 2490.52 L 590.735 2490.52 L 590.735 2490.52 L 590.735 2490.52 Z  M 606.965 2489.936 L 606.965 2489.936 C 608.195 2489.508 609.542 2490.159 609.97 2491.39 L 626.488 2538.878 C 626.916 2540.109 626.264 2541.455 625.033 2541.883 L 625.033 2541.883 C 623.803 2542.311 622.456 2541.66 622.028 2540.429 L 605.511 2492.941 C 605.083 2491.71 605.734 2490.364 606.965 2489.936 L 606.965 2489.936 L 606.965 2489.936 L 606.965 2489.936 L 606.965 2489.936 Z  M 621.715 2489.405 L 621.715 2489.405 C 622.946 2488.977 624.292 2489.628 624.72 2490.859 L 641.238 2538.347 C 641.666 2539.578 641.015 2540.924 639.784 2541.352 L 639.784 2541.352 C 638.554 2541.78 637.207 2541.129 636.779 2539.898 L 620.261 2492.41 C 619.833 2491.179 620.485 2489.833 621.715 2489.405 L 621.715 2489.405 L 621.715 2489.405 Z  M 671.701 2547.325 L 685.078 2488.464 C 686.044 2484.214 682.814 2480.167 678.456 2480.167 L 567.304 2480.167 L 564.71 2467.486 C 564.063 2464.325 561.282 2462.056 558.056 2462.056 L 529.042 2462.056 C 525.291 2462.056 522.25 2465.096 522.25 2468.847 L 522.25 2473.375 C 522.25 2477.126 525.291 2480.167 529.042 2480.167 L 548.818 2480.167 L 568.697 2577.354 C 563.941 2580.089 560.736 2585.217 560.736 2591.097 C 560.736 2599.849 567.831 2606.944 576.583 2606.944 C 585.336 2606.944 592.431 2599.849 592.431 2591.097 C 592.431 2586.662 590.606 2582.654 587.67 2579.778 L 646.997 2579.778 C 644.061 2582.654 642.236 2586.662 642.236 2591.097 C 642.236 2599.849 649.331 2606.944 658.083 2606.944 C 666.836 2606.944 673.931 2599.849 673.931 2591.097 C 673.931 2584.823 670.283 2579.401 664.994 2576.833 L 666.555 2569.964 C 667.521 2565.714 664.291 2561.667 659.933 2561.667 L 583.974 2561.667 L 582.122 2552.611 L 665.078 2552.611 C 668.249 2552.611 670.998 2550.417 671.701 2547.325 L 671.701 2547.325 L 671.701 2547.325 L 671.701 2547.325 L 671.701 2547.325 L 671.701 2547.325 L 671.701 2547.325 L 671.701 2547.325 L 671.701 2547.325 Z  M 637.304 2488.844 L 637.304 2488.844 C 638.534 2488.416 639.881 2489.067 640.309 2490.298 L 656.827 2537.786 C 657.255 2539.016 656.603 2540.363 655.373 2540.791 L 655.373 2540.791 C 654.142 2541.219 652.796 2540.567 652.367 2539.337 L 635.85 2491.849 C 635.422 2490.618 636.073 2489.272 637.304 2488.844 Z " fill-rule="evenodd" fill="rgb(255,255,255)"/></svg>