<?xml version="1.0" encoding="UTF-8" standalone="no"?><!-- Generator: Gravit.io --><svg xmlns="http://www.w3.org/2000/svg" xmlns:xlink="http://www.w3.org/1999/xlink" style="isolation:isolate" viewBox="431 1344 136 136" width="136pt" height="136pt"><g><circle vector-effect="non-scaling-stroke" cx="499.0000000000001" cy="1412" r="68" fill="rgb(213,190,255)"/><path d=" M 499 1370 C 475.798 1370 457 1388.798 457 1412 C 457 1435.202 475.798 1454 499 1454 C 522.202 1454 541 1435.202 541 1412 C 541 1388.798 522.202 1370 499 1370 Z  M 508.67 1429.291 L 493.733 1418.435 C 493.208 1418.046 492.903 1417.436 492.903 1416.793 L 492.903 1388.29 C 492.903 1387.173 493.818 1386.258 494.935 1386.258 L 503.065 1386.258 C 504.182 1386.258 505.097 1387.173 505.097 1388.29 L 505.097 1411.61 L 515.851 1419.435 C 516.765 1420.095 516.952 1421.365 516.291 1422.28 L 511.515 1428.851 C 510.855 1429.748 509.585 1429.952 508.67 1429.291 Z " fill="rgb(149,44,219)"/></g></svg>