<?xml version="1.0" encoding="UTF-8" standalone="no"?><!-- Generator: Gravit.io --><svg xmlns="http://www.w3.org/2000/svg" xmlns:xlink="http://www.w3.org/1999/xlink" style="isolation:isolate" viewBox="549 2329.5 144 144" width="144pt" height="144pt"><path d=" M 631 2391.5 L 631 2342.729 C 631 2335.428 626.519 2329.5 621 2329.5 L 621 2329.5 C 615.481 2329.5 611 2335.428 611 2342.729 L 611 2391.5 L 562.229 2391.5 C 554.928 2391.5 549 2395.981 549 2401.5 L 549 2401.5 C 549 2407.019 554.928 2411.5 562.229 2411.5 L 611 2411.5 L 611 2460.271 C 611 2467.572 615.481 2473.5 621 2473.5 L 621 2473.5 C 626.519 2473.5 631 2467.572 631 2460.271 L 631 2411.5 L 679.771 2411.5 C 687.072 2411.5 693 2407.019 693 2401.5 L 693 2401.5 C 693 2395.981 687.072 2391.5 679.771 2391.5 L 631 2391.5 Z " fill-rule="evenodd" fill="rgb(235,235,235)"/></svg>