<?xml version="1.0" encoding="UTF-8" standalone="no"?><!-- Generator: Gravit.io --><svg xmlns="http://www.w3.org/2000/svg" xmlns:xlink="http://www.w3.org/1999/xlink" style="isolation:isolate" viewBox="742.5 1567.25 113.5 113.5" width="113.5pt" height="113.5pt"><path d=" M 852.438 1592.063 L 831.187 1570.812 C 828.906 1568.531 825.813 1567.25 822.588 1567.25 L 754.661 1567.25 C 747.944 1567.25 742.5 1572.694 742.5 1579.411 L 742.5 1668.589 C 742.5 1675.306 747.944 1680.75 754.661 1680.75 L 843.839 1680.75 C 850.556 1680.75 856 1675.306 856 1668.589 L 856 1600.662 C 856 1597.437 854.719 1594.344 852.438 1592.063 L 852.438 1592.063 Z  M 799.25 1664.536 C 790.295 1664.536 783.036 1657.276 783.036 1648.321 C 783.036 1639.367 790.295 1632.107 799.25 1632.107 C 808.205 1632.107 815.464 1639.367 815.464 1648.321 C 815.464 1657.276 808.205 1664.536 799.25 1664.536 Z  M 823.571 1587.386 L 823.571 1612.853 C 823.571 1614.532 822.21 1615.893 820.531 1615.893 L 761.754 1615.893 C 760.076 1615.893 758.714 1614.532 758.714 1612.853 L 758.714 1586.504 C 758.714 1584.826 760.076 1583.464 761.754 1583.464 L 819.65 1583.464 C 820.456 1583.464 821.229 1583.785 821.799 1584.355 L 822.681 1585.236 C 823.251 1585.807 823.572 1586.58 823.571 1587.386 L 823.571 1587.386 Z " fill="rgb(255,255,255)"/></svg>