<?xml version="1.0" encoding="UTF-8" standalone="no"?><!-- Generator: Gravit.io --><svg xmlns="http://www.w3.org/2000/svg" xmlns:xlink="http://www.w3.org/1999/xlink" style="isolation:isolate" viewBox="127 2352.2 136 136" width="136pt" height="136pt"><path d=" M 258.732 2381.932 L 233.268 2356.468 C 230.535 2353.735 226.829 2352.2 222.964 2352.2 L 141.571 2352.2 C 133.524 2352.2 127 2358.724 127 2366.771 L 127 2473.629 C 127 2481.676 133.524 2488.2 141.571 2488.2 L 248.429 2488.2 C 256.476 2488.2 263 2481.676 263 2473.629 L 263 2392.236 C 263 2388.371 261.465 2384.665 258.732 2381.932 L 258.732 2381.932 Z  M 195 2468.771 C 184.27 2468.771 175.571 2460.073 175.571 2449.343 C 175.571 2438.613 184.27 2429.914 195 2429.914 C 205.73 2429.914 214.429 2438.613 214.429 2449.343 C 214.429 2460.073 205.73 2468.771 195 2468.771 Z  M 224.143 2376.328 L 224.143 2406.843 C 224.143 2408.855 222.512 2410.486 220.5 2410.486 L 150.071 2410.486 C 148.06 2410.486 146.429 2408.855 146.429 2406.843 L 146.429 2375.271 C 146.429 2373.26 148.06 2371.629 150.071 2371.629 L 219.444 2371.629 C 220.41 2371.629 221.336 2372.012 222.019 2372.696 L 223.076 2373.752 C 223.759 2374.435 224.143 2375.362 224.143 2376.328 L 224.143 2376.328 Z " fill="rgb(0,185,96)"/></svg>