<?xml version="1.0" encoding="UTF-8" standalone="no"?><!-- Generator: Gravit.io --><svg xmlns="http://www.w3.org/2000/svg" xmlns:xlink="http://www.w3.org/1999/xlink" style="isolation:isolate" viewBox="965 2448 235 201.95" width="235pt" height="201.95pt"><g><path d=" M 1199.843 2597.86 L 1161.829 2455.991 C 1161.513 2454.815 1160.745 2453.813 1159.69 2453.204 C 1158.635 2452.595 1157.382 2452.431 1156.207 2452.746 L 1126.447 2460.721 C 1124.062 2453.348 1117.134 2448 1108.977 2448 C 1098.854 2448 1090.618 2456.236 1090.618 2466.359 C 1090.618 2467.681 1090.762 2468.968 1091.028 2470.211 L 1067.014 2476.646 L 1008.792 2461.044 C 1006.343 2460.388 1003.828 2461.841 1003.171 2464.29 L 965.157 2606.158 C 964.501 2608.606 965.954 2611.123 968.403 2611.779 L 1047.708 2633.029 L 1049.107 2638.249 C 1049.656 2640.299 1051.51 2641.652 1053.537 2641.652 C 1053.93 2641.652 1054.33 2641.601 1054.728 2641.494 L 1067.015 2638.202 L 1110.272 2649.792 C 1110.67 2649.899 1111.069 2649.95 1111.462 2649.95 C 1113.489 2649.95 1115.343 2648.598 1115.893 2646.547 L 1122.082 2623.447 L 1196.597 2603.481 C 1199.045 2602.825 1200.498 2600.308 1199.843 2597.86 Z  M 1108.977 2457.179 C 1114.039 2457.179 1118.157 2461.297 1118.157 2466.358 C 1118.157 2471.42 1114.039 2475.538 1108.977 2475.538 C 1103.916 2475.538 1099.798 2471.42 1099.798 2466.358 C 1099.798 2461.297 1103.916 2457.179 1108.977 2457.179 Z  M 975.212 2604.1 L 1010.85 2471.099 L 1049.281 2481.397 L 1014.339 2490.759 C 1013.163 2491.075 1012.161 2491.843 1011.552 2492.898 C 1010.944 2493.952 1010.778 2495.205 1011.094 2496.38 L 1044.965 2622.791 L 975.212 2604.1 Z  M 1108.214 2639.738 L 1084.748 2633.451 L 1111.845 2626.19 L 1108.214 2639.738 Z  M 1056.786 2631.44 L 1021.148 2498.438 L 1095.286 2478.573 C 1095.555 2478.874 1095.833 2479.165 1096.12 2479.448 L 1088.433 2492.762 C 1087.166 2494.957 1087.918 2497.764 1090.113 2499.031 C 1090.836 2499.449 1091.625 2499.647 1092.404 2499.647 C 1093.99 2499.647 1095.533 2498.824 1096.383 2497.352 L 1104.066 2484.045 C 1105.63 2484.48 1107.276 2484.717 1108.977 2484.717 C 1117.823 2484.717 1125.227 2478.428 1126.955 2470.087 L 1154.15 2462.8 L 1189.788 2595.802 L 1056.786 2631.44 Z " fill="rgb(255,255,255)"/><path d=" M 1145.346 2518.616 C 1147.794 2517.96 1149.248 2515.443 1148.591 2512.995 C 1147.935 2510.546 1145.418 2509.093 1142.97 2509.75 L 1054.304 2533.508 C 1051.856 2534.164 1050.402 2536.681 1051.059 2539.129 C 1051.608 2541.179 1053.462 2542.532 1055.489 2542.532 C 1055.882 2542.532 1056.282 2542.481 1056.68 2542.374 L 1145.346 2518.616 Z " fill="rgb(255,255,255)"/><path d=" M 1150.692 2538.566 C 1153.141 2537.91 1154.594 2535.393 1153.937 2532.945 C 1153.281 2530.497 1150.764 2529.043 1148.316 2529.699 L 1059.65 2553.458 C 1057.201 2554.114 1055.748 2556.63 1056.405 2559.079 C 1056.954 2561.129 1058.808 2562.482 1060.835 2562.482 C 1061.228 2562.482 1061.628 2562.431 1062.026 2562.324 L 1150.692 2538.566 Z " fill="rgb(255,255,255)"/><path d=" M 1064.996 2573.407 C 1062.548 2574.063 1061.094 2576.58 1061.751 2579.028 C 1062.3 2581.079 1064.154 2582.431 1066.181 2582.431 C 1066.574 2582.431 1066.974 2582.381 1067.372 2582.274 L 1156.038 2558.516 C 1158.486 2557.86 1159.939 2555.343 1159.283 2552.895 C 1158.627 2550.447 1156.11 2548.993 1153.662 2549.649 L 1064.996 2573.407 Z " fill="rgb(255,255,255)"/><path d=" M 1114.674 2581.479 L 1070.341 2593.357 C 1067.893 2594.014 1066.44 2596.53 1067.096 2598.979 C 1067.645 2601.029 1069.5 2602.382 1071.526 2602.382 C 1071.919 2602.382 1072.32 2602.331 1072.717 2602.224 L 1117.05 2590.345 C 1119.498 2589.689 1120.952 2587.172 1120.295 2584.724 C 1119.639 2582.276 1117.121 2580.822 1114.674 2581.479 L 1114.674 2581.479 Z " fill="rgb(255,255,255)"/></g></svg>