<?xml version="1.0" encoding="UTF-8" standalone="no"?><!-- Generator: Gravit.io --><svg xmlns="http://www.w3.org/2000/svg" xmlns:xlink="http://www.w3.org/1999/xlink" style="isolation:isolate" viewBox="107 2474.82 161 138.357" width="161pt" height="138.357pt"><path d=" M 205.64 2481.109 C 209.108 2481.109 211.929 2483.93 211.929 2487.398 C 211.929 2490.865 209.108 2493.687 205.64 2493.687 C 202.172 2493.687 199.351 2490.865 199.351 2487.398 C 199.351 2483.93 202.172 2481.109 205.64 2481.109 L 205.64 2481.109 L 205.64 2481.109 L 205.64 2481.109 L 205.64 2481.109 Z  M 113.997 2581.766 L 138.412 2490.646 L 164.742 2497.701 L 140.803 2504.115 C 139.997 2504.331 139.31 2504.858 138.893 2505.58 C 138.476 2506.302 138.363 2507.161 138.579 2507.966 L 161.785 2594.571 L 113.997 2581.766 L 113.997 2581.766 L 113.997 2581.766 L 113.997 2581.766 L 113.997 2581.766 Z  M 205.117 2606.181 L 189.04 2601.874 L 207.604 2596.899 L 205.117 2606.181 L 205.117 2606.181 L 205.117 2606.181 L 205.117 2606.181 L 205.117 2606.181 Z  M 230.556 2523.2 C 232.234 2522.75 233.229 2521.026 232.78 2519.349 C 232.33 2517.671 230.606 2516.675 228.928 2517.125 L 168.183 2533.402 C 166.505 2533.852 165.51 2535.576 165.96 2537.253 C 166.336 2538.658 167.606 2539.585 168.995 2539.585 C 169.264 2539.585 169.538 2539.55 169.811 2539.477 L 230.556 2523.2 L 230.556 2523.2 L 230.556 2523.2 L 230.556 2523.2 Z  M 234.219 2536.868 C 235.896 2536.418 236.892 2534.694 236.442 2533.017 C 235.993 2531.339 234.268 2530.343 232.591 2530.793 L 171.845 2547.07 C 170.168 2547.52 169.172 2549.244 169.622 2550.921 C 169.998 2552.326 171.269 2553.253 172.657 2553.253 C 172.926 2553.253 173.201 2553.218 173.473 2553.145 L 234.219 2536.868 L 234.219 2536.868 L 234.219 2536.868 Z  M 175.508 2560.738 C 173.831 2561.187 172.835 2562.911 173.285 2564.589 C 173.661 2565.994 174.931 2566.92 176.32 2566.92 C 176.589 2566.92 176.863 2566.885 177.136 2566.812 L 237.881 2550.536 C 239.559 2550.086 240.554 2548.362 240.105 2546.685 C 239.655 2545.007 237.931 2544.011 236.254 2544.461 L 175.508 2560.738 L 175.508 2560.738 Z  M 169.883 2600.496 L 145.468 2509.376 L 196.26 2495.766 C 196.444 2495.972 196.635 2496.172 196.831 2496.366 L 191.565 2505.487 C 190.697 2506.991 191.212 2508.914 192.716 2509.782 C 193.211 2510.068 193.752 2510.204 194.285 2510.204 C 195.372 2510.204 196.429 2509.64 197.011 2508.632 L 202.275 2499.515 C 203.347 2499.813 204.474 2499.976 205.64 2499.976 C 211.7 2499.976 216.773 2495.667 217.956 2489.952 L 236.588 2484.96 L 261.004 2576.08 L 169.883 2600.496 L 169.883 2600.496 L 169.883 2600.496 L 169.883 2600.496 L 169.883 2600.496 Z  M 267.892 2577.49 L 241.849 2480.295 C 241.633 2479.489 241.106 2478.803 240.384 2478.386 C 239.661 2477.969 238.802 2477.856 237.998 2478.072 L 217.608 2483.535 C 215.974 2478.484 211.228 2474.82 205.64 2474.82 C 198.704 2474.82 193.062 2480.463 193.062 2487.398 C 193.062 2488.304 193.16 2489.186 193.343 2490.038 L 176.891 2494.446 L 137.003 2483.757 C 135.325 2483.308 133.601 2484.303 133.152 2485.981 L 107.108 2583.175 C 106.658 2584.853 107.654 2586.577 109.331 2587.026 L 163.664 2601.585 L 164.622 2605.161 C 164.999 2606.566 166.269 2607.493 167.658 2607.493 C 167.927 2607.493 168.201 2607.458 168.473 2607.384 L 176.891 2605.129 L 206.527 2613.07 C 206.799 2613.143 207.073 2613.178 207.342 2613.178 C 208.731 2613.178 210.001 2612.251 210.378 2610.846 L 214.618 2595.02 L 265.668 2581.341 C 267.346 2580.892 268.341 2579.167 267.892 2577.49 L 267.892 2577.49 L 267.892 2577.49 L 267.892 2577.49 L 267.892 2577.49 Z  M 209.543 2566.267 L 179.17 2574.406 C 177.493 2574.855 176.497 2576.579 176.947 2578.257 C 177.323 2579.662 178.593 2580.588 179.982 2580.588 C 180.251 2580.588 180.525 2580.553 180.798 2580.48 L 211.17 2572.342 C 212.848 2571.892 213.843 2570.168 213.394 2568.491 C 212.944 2566.814 211.219 2565.817 209.543 2566.267 L 209.543 2566.267 Z " fill-rule="evenodd" fill="none"/></svg>