<?xml version="1.0" encoding="UTF-8" standalone="no"?><!-- Generator: Gravit.io --><svg xmlns="http://www.w3.org/2000/svg" xmlns:xlink="http://www.w3.org/1999/xlink" style="isolation:isolate" viewBox="717 925 136 136" width="136pt" height="136pt"><g><circle vector-effect="non-scaling-stroke" cx="785" cy="993" r="68" fill="rgb(190,215,255)"/><path d=" M 808.592 1017.512 L 762.348 1017.512 C 761.46 1017.512 760.611 1017.342 759.841 1017.016 C 756.641 1016.287 754.26 1013.419 754.26 1009.999 L 754.26 954.455 C 754.26 950.465 757.499 947.227 761.488 947.227 L 761.958 947.227 C 765.947 947.227 769.186 950.465 769.186 954.455 L 769.186 1003.824 L 811.904 1003.824 L 798.376 990.296 C 795.396 987.316 794.981 982.892 797.45 980.423 L 797.45 980.423 C 799.919 977.954 804.343 978.369 807.324 981.349 L 829.139 1003.165 C 829.719 1003.744 830.201 1004.378 830.588 1005.04 C 831.653 1006.397 831.97 1008.217 831.578 1010.04 C 831.473 1010.696 831.258 1011.321 830.917 1011.88 C 830.521 1012.735 829.945 1013.551 829.216 1014.28 L 807.247 1036.249 C 804.309 1039.187 799.975 1039.624 797.576 1037.224 L 797.576 1037.224 C 795.176 1034.825 795.613 1030.491 798.551 1027.553 L 808.592 1017.512 Z " fill-rule="evenodd" fill="rgb(74,134,232)"/></g></svg>