<?xml version="1.0" encoding="UTF-8" standalone="no"?><!-- Generator: Gravit.io --><svg xmlns="http://www.w3.org/2000/svg" xmlns:xlink="http://www.w3.org/1999/xlink" style="isolation:isolate" viewBox="997 2487.464 133.999 113.07" width="133.999pt" height="113.07pt"><path d=" M 1033.538 2488.388 C 1032.949 2487.797 1032.149 2487.464 1031.314 2487.464 C 1030.479 2487.464 1029.678 2487.797 1029.089 2488.388 L 1012.423 2504.957 L 1006.482 2499.168 C 1005.893 2498.577 1005.092 2498.244 1004.257 2498.244 C 1003.422 2498.244 1002.622 2498.577 1002.033 2499.168 L 997.924 2503.282 C 997.332 2503.872 997 2504.672 997 2505.507 C 997 2506.342 997.332 2507.142 997.924 2507.731 L 1010.379 2520.137 C 1011.67 2521.364 1013.697 2521.364 1014.988 2520.137 L 1019.068 2516.049 L 1037.964 2497.155 C 1039.189 2495.929 1039.2 2493.945 1037.988 2492.706 L 1033.538 2488.388 Z  M 1033.538 2530.051 C 1032.949 2529.459 1032.149 2529.127 1031.314 2529.127 C 1030.479 2529.127 1029.678 2529.459 1029.089 2530.051 L 1012.423 2546.727 L 1006.482 2540.943 C 1005.893 2540.352 1005.092 2540.02 1004.257 2540.02 C 1003.422 2540.02 1002.622 2540.352 1002.033 2540.943 L 997.924 2545.05 C 997.332 2545.639 997 2546.44 997 2547.274 C 997 2548.109 997.332 2548.91 997.924 2549.499 L 1010.347 2561.931 C 1011.638 2563.158 1013.663 2563.158 1014.954 2561.931 L 1019.063 2557.824 L 1037.959 2538.923 C 1039.179 2537.705 1039.19 2535.731 1037.982 2534.5 L 1033.538 2530.051 Z  M 1013.75 2575.409 C 1006.817 2575.409 1001.033 2581.036 1001.033 2587.972 C 1001.033 2594.907 1006.822 2600.534 1013.75 2600.534 C 1020.688 2600.534 1026.312 2594.91 1026.312 2587.972 C 1026.312 2581.034 1020.688 2575.409 1013.75 2575.409 Z  M 1126.812 2579.597 L 1051.437 2579.597 C 1049.125 2579.597 1047.25 2581.471 1047.25 2583.784 L 1047.25 2589.499 C 1047.25 2591.812 1049.125 2594.571 1051.437 2594.571 L 1126.812 2594.571 C 1129.125 2594.571 1130.999 2591.812 1130.999 2589.499 L 1130.999 2583.784 C 1130.999 2581.471 1129.125 2579.597 1126.812 2579.597 Z  M 1126.812 2497.701 L 1051.437 2497.701 C 1049.125 2497.701 1047.25 2500.97 1047.25 2503.282 L 1047.25 2508.409 C 1047.25 2510.722 1049.125 2512.597 1051.437 2512.597 L 1126.812 2512.597 C 1129.125 2512.597 1130.999 2510.722 1130.999 2508.409 L 1130.999 2503.282 C 1130.999 2500.97 1129.125 2497.701 1126.812 2497.701 Z  M 1126.812 2537.722 L 1051.437 2537.722 C 1049.125 2537.722 1047.25 2539.597 1047.25 2541.909 L 1047.25 2547.274 C 1047.25 2549.587 1049.125 2550.921 1051.437 2550.921 L 1126.812 2550.921 C 1129.125 2550.921 1130.999 2549.587 1130.999 2547.274 L 1130.999 2541.909 C 1130.999 2539.597 1129.125 2537.722 1126.812 2537.722 Z " fill="rgb(255,0,111)"/></svg>