<?xml version="1.0" encoding="UTF-8" standalone="no"?><!-- Generator: Gravit.io --><svg xmlns="http://www.w3.org/2000/svg" xmlns:xlink="http://www.w3.org/1999/xlink" style="isolation:isolate" viewBox="550.962 2337.3 145.075 165.8" width="145.075pt" height="165.8pt"><path d=" M 561.325 2487.556 C 561.325 2496.141 568.284 2503.1 576.869 2503.1 L 670.131 2503.1 C 678.716 2503.1 685.675 2496.141 685.675 2487.556 L 685.675 2378.75 L 561.325 2378.75 L 561.325 2487.556 Z  M 649.406 2404.656 C 649.406 2401.795 651.726 2399.475 654.588 2399.475 C 657.449 2399.475 659.769 2401.795 659.769 2404.656 L 659.769 2477.194 C 659.769 2480.055 657.449 2482.375 654.588 2482.375 C 651.726 2482.375 649.406 2480.055 649.406 2477.194 L 649.406 2404.656 Z  M 618.319 2404.656 C 618.319 2401.795 620.638 2399.475 623.5 2399.475 C 626.362 2399.475 628.681 2401.795 628.681 2404.656 L 628.681 2477.194 C 628.681 2480.055 626.362 2482.375 623.5 2482.375 C 620.638 2482.375 618.319 2480.055 618.319 2477.194 L 618.319 2404.656 Z  M 587.231 2404.656 C 587.231 2401.795 589.551 2399.475 592.412 2399.475 C 595.274 2399.475 597.594 2401.795 597.594 2404.656 L 597.594 2477.194 C 597.594 2480.055 595.274 2482.375 592.412 2482.375 C 589.551 2482.375 587.231 2480.055 587.231 2477.194 L 587.231 2404.656 Z  M 690.856 2347.662 L 651.997 2347.662 L 648.953 2341.607 C 647.638 2338.966 644.941 2337.298 641.991 2337.3 L 604.977 2337.3 C 602.032 2337.289 599.341 2338.962 598.047 2341.607 L 595.003 2347.662 L 556.144 2347.662 C 553.282 2347.662 550.962 2349.982 550.962 2352.844 L 550.962 2363.206 C 550.962 2366.068 553.282 2368.387 556.144 2368.387 L 690.856 2368.387 C 693.718 2368.387 696.038 2366.068 696.038 2363.206 L 696.038 2352.844 C 696.038 2349.982 693.718 2347.662 690.856 2347.662 Z "/></svg>