<?xml version="1.0" encoding="UTF-8" standalone="no"?><!-- Generator: Gravit.io --><svg xmlns="http://www.w3.org/2000/svg" xmlns:xlink="http://www.w3.org/1999/xlink" style="isolation:isolate" viewBox="752.969 1531 136 136" width="136pt" height="136pt"><g><linearGradient id="_lgradient_0" x1="0" y1="0.5" x2="1" y2="0.5" gradientTransform="matrix(136,0,0,136,752.969,1531)" gradientUnits="userSpaceOnUse"><stop offset="2.1739130434782608%" stop-opacity="1" style="stop-color:rgb(255,172,205)"/><stop offset="53.49418502746687%" stop-opacity="1" style="stop-color:rgb(255,177,192)"/><stop offset="96.95652173913044%" stop-opacity="1" style="stop-color:rgb(255,181,181)"/></linearGradient><circle vector-effect="non-scaling-stroke" cx="820.9687500000001" cy="1599" r="67.99999999999989" fill="url(#_lgradient_0)"/><path d=" M 851.936 1565.651 L 834.07 1565.651 L 832.671 1562.866 C 832.066 1561.652 830.826 1560.885 829.47 1560.886 L 812.453 1560.886 C 811.099 1560.881 809.861 1561.65 809.267 1562.866 L 807.867 1565.651 L 790.001 1565.651 C 788.686 1565.651 787.619 1566.717 787.619 1568.033 L 787.619 1572.797 C 787.619 1574.112 788.686 1575.179 790.001 1575.179 L 851.936 1575.179 C 853.252 1575.179 854.318 1574.112 854.318 1572.797 L 854.318 1568.033 C 854.318 1566.717 853.252 1565.651 851.936 1565.651 Z  M 795.54 1630.414 C 795.776 1634.18 798.898 1637.113 802.671 1637.114 L 839.266 1637.114 C 843.039 1637.113 846.162 1634.18 846.398 1630.414 L 849.554 1579.943 L 792.383 1579.943 L 795.54 1630.414 Z " fill="rgb(255,0,81)"/></g></svg>