<?xml version="1.0" encoding="UTF-8" standalone="no"?><!-- Generator: Gravit.io --><svg xmlns="http://www.w3.org/2000/svg" xmlns:xlink="http://www.w3.org/1999/xlink" style="isolation:isolate" viewBox="397 1491 448 512" width="448pt" height="512pt"><path d=" M 829 1523 L 709 1523 L 699.6 1504.3 C 695.538 1496.145 687.21 1490.993 678.1 1491 L 563.8 1491 C 554.707 1490.965 546.394 1496.131 542.4 1504.3 L 533 1523 L 413 1523 C 404.163 1523 397 1530.163 397 1539 L 397 1571 C 397 1579.837 404.163 1587 413 1587 L 829 1587 C 837.837 1587 845 1579.837 845 1571 L 845 1539 C 845 1530.163 837.837 1523 829 1523 Z  M 450.2 1958 C 451.784 1983.293 472.758 2002.997 498.1 2003 L 743.9 2003 C 769.242 2002.997 790.216 1983.293 791.8 1958 L 813 1619 L 429 1619 L 450.2 1958 Z " fill="rgb(255,0,81)"/></svg>