<?xml version="1.0" encoding="UTF-8" standalone="no"?><!-- Generator: Gravit.io --><svg xmlns="http://www.w3.org/2000/svg" xmlns:xlink="http://www.w3.org/1999/xlink" style="isolation:isolate" viewBox="715.248 584 136 136" width="136pt" height="136pt"><g><linearGradient id="_lgradient_0" x1="0" y1="0.5" x2="1" y2="0.5" gradientTransform="matrix(136,0,0,136,715.248,584)" gradientUnits="userSpaceOnUse"><stop offset="2.1739130434782608%" stop-opacity="1" style="stop-color:rgb(255,172,205)"/><stop offset="53.49418502746687%" stop-opacity="1" style="stop-color:rgb(255,177,192)"/><stop offset="96.95652173913044%" stop-opacity="1" style="stop-color:rgb(255,181,181)"/></linearGradient><circle vector-effect="non-scaling-stroke" cx="783.2479083626451" cy="652.0000000000001" r="67.99999999999989" fill="url(#_lgradient_0)"/><path d=" M 814.215 618.651 L 796.349 618.651 L 794.95 615.866 C 794.345 614.652 793.105 613.885 791.749 613.886 L 774.732 613.886 C 773.378 613.881 772.141 614.65 771.546 615.866 L 770.146 618.651 L 752.281 618.651 C 750.965 618.651 749.898 619.717 749.898 621.033 L 749.898 625.797 C 749.898 627.112 750.965 628.179 752.281 628.179 L 814.215 628.179 C 815.531 628.179 816.597 627.112 816.597 625.797 L 816.597 621.033 C 816.597 619.717 815.531 618.651 814.215 618.651 Z  M 757.819 683.414 C 758.055 687.18 761.177 690.113 764.95 690.114 L 801.545 690.114 C 805.318 690.113 808.441 687.18 808.677 683.414 L 811.833 632.943 L 754.663 632.943 L 757.819 683.414 Z " fill="rgb(255,0,81)"/></g></svg>