<?xml version="1.0" encoding="UTF-8" standalone="no"?><!-- Generator: Gravit.io --><svg xmlns="http://www.w3.org/2000/svg" xmlns:xlink="http://www.w3.org/1999/xlink" style="isolation:isolate" viewBox="997 1537 192 126" width="192pt" height="126pt"><g><path d="M 1004.221 1537 L 1181.779 1537 C 1185.764 1537 1189 1540.236 1189 1544.221 L 1189 1655.779 C 1189 1659.764 1185.764 1663 1181.779 1663 L 1004.221 1663 C 1000.236 1663 997 1659.764 997 1655.779 L 997 1544.221 C 997 1540.236 1000.236 1537 1004.221 1537 Z" style="stroke:none;fill:#FF97B4;stroke-miterlimit:10;"/><path d=" M 1086.001 1619.829 L 1126.371 1556.813 C 1130.242 1550.772 1138.289 1549.009 1144.33 1552.879 L 1144.33 1552.879 C 1150.372 1556.75 1152.134 1564.797 1148.264 1570.838 L 1102.049 1642.978 C 1099.578 1646.835 1095.405 1648.948 1091.138 1648.957 C 1088.318 1649.48 1085.309 1649.068 1082.598 1647.589 L 1042.458 1625.693 C 1036.159 1622.258 1033.835 1614.354 1037.271 1608.056 L 1037.271 1608.056 C 1040.707 1601.757 1048.61 1599.433 1054.909 1602.868 L 1086.001 1619.829 Z " fill-rule="evenodd" fill="rgb(255,0,72)"/></g></svg>